<?xml version="1.0" standalone="no"?>
<!DOCTYPE svg PUBLIC "-//W3C//DTD SVG 20010904//EN"
 "http://www.w3.org/TR/2001/REC-SVG-20010904/DTD/svg10.dtd">
<svg version="1.0" xmlns="http://www.w3.org/2000/svg"
 width="574.000000pt" height="573.000000pt" viewBox="0 0 574.000000 573.000000"
 preserveAspectRatio="xMidYMid meet">

<g transform="translate(0.000000,573.000000) scale(0.100000,-0.100000)"
fill="#000000" stroke="none">
<path d="M2600 5719 c-801 -74 -1545 -484 -2021 -1115 -258 -343 -443 -757
-523 -1174 -43 -223 -51 -305 -51 -565 0 -260 8 -342 51 -565 113 -590 438
-1169 871 -1556 961 -858 2359 -988 3456 -320 675 410 1151 1097 1301 1876 43
223 51 305 51 565 0 260 -8 342 -51 565 -113 590 -438 1169 -871 1556 -477
426 -1056 677 -1693 734 -134 12 -384 11 -520 -1z m531 -49 c723 -72 1364
-400 1849 -945 475 -534 734 -1277 690 -1986 -13 -226 -53 -463 -99 -599 -5
-14 -19 -56 -31 -95 l-23 -70 -332 5 c-183 3 -331 2 -328 -2 2 -5 -3 -8 -12
-8 -8 0 -24 -6 -35 -12 -18 -12 -24 -8 -59 32 -35 41 -37 45 -19 48 11 2 25
-1 31 -7 6 -6 30 -11 53 -11 42 0 42 1 39 31 -5 40 -52 95 -94 109 -18 7 -65
15 -105 19 l-71 6 33 34 c17 19 32 38 32 44 0 5 11 7 24 5 29 -6 57 8 40 20
-12 8 -54 90 -54 106 0 12 -126 132 -162 154 -16 9 -28 20 -28 24 0 4 35 5 78
2 127 -9 143 -8 152 6 22 35 -85 139 -152 147 -22 3 -42 12 -45 19 -12 32 100
406 155 514 38 75 71 107 58 56 -5 -19 -1 -29 14 -38 14 -9 20 -24 20 -50 0
-21 4 -38 10 -38 5 0 7 -13 3 -30 -4 -24 -3 -29 10 -25 12 5 15 -7 15 -82 0
-84 19 -163 52 -213 17 -25 27 4 40 113 15 118 8 247 -15 301 -9 21 -14 40
-11 43 16 16 212 -205 306 -345 54 -81 70 -96 70 -67 0 8 5 15 10 15 6 0 10
-6 10 -14 0 -8 4 -17 9 -20 15 -10 61 12 61 29 0 25 -65 216 -90 265 -30 60
-65 107 -113 152 -21 21 -36 42 -32 48 10 17 136 12 156 -6 9 -8 41 -18 71
-21 51 -5 55 -4 61 17 6 25 -30 107 -58 130 -9 7 -22 25 -30 40 -21 41 -105
63 -260 67 -71 3 -135 6 -142 8 -21 7 9 66 55 104 23 19 42 43 42 53 0 23 73
61 88 46 8 -8 15 -6 26 4 13 14 12 19 -10 51 -13 20 -27 50 -30 66 -4 16 -19
42 -35 57 -35 34 -38 54 -6 47 19 -4 17 0 -13 28 -143 131 -208 192 -230 213
-14 13 -53 40 -87 60 -106 63 -99 75 27 51 49 -10 93 -15 97 -11 4 4 -5 29
-19 56 -33 61 -24 74 12 17 15 -23 37 -51 48 -61 19 -17 22 -17 22 -3 0 21 -4
22 54 -8 51 -26 120 -33 131 -14 4 6 13 8 21 5 21 -8 28 13 9 34 -18 20 -7 34
15 19 35 -21 28 -6 -12 28 -25 21 -42 43 -41 54 2 12 -11 23 -42 36 -29 11
-45 24 -45 36 0 12 -8 17 -32 17 -32 1 -33 1 -10 14 22 12 20 14 -49 39 l-73
27 -21 -20 c-27 -25 -38 -25 -30 0 6 18 2 20 -38 20 -48 0 -157 -26 -252 -59
-32 -12 -68 -21 -80 -21 -18 1 -17 3 7 23 25 20 26 23 10 33 -15 10 -13 13 16
28 40 21 41 30 2 21 -48 -11 -36 12 25 46 44 25 54 35 50 50 -4 11 -2 19 5 19
9 0 40 57 40 75 0 12 -38 3 -86 -19 -41 -19 -55 -32 -70 -65 -17 -38 -34 -54
-34 -31 0 6 -6 10 -13 10 -9 0 -23 -43 -43 -131 -28 -126 -38 -159 -47 -149
-2 3 -21 59 -43 125 -38 116 -40 121 -79 141 -23 12 -54 33 -69 47 -43 40
-137 59 -188 39 -15 -6 -9 -15 33 -52 28 -25 61 -54 73 -66 11 -12 37 -24 57
-28 44 -8 70 -32 45 -42 -14 -5 -14 -9 -4 -22 15 -17 19 -18 -157 18 -165 33
-329 26 -422 -17 -31 -14 -40 -13 -145 15 -222 61 -318 74 -494 69 -87 -3
-193 -12 -234 -20 -150 -31 -148 -30 -208 -11 -100 32 -342 17 -506 -33 -14
-4 -18 -1 -13 10 3 9 -1 18 -9 21 -33 13 -3 35 69 50 15 4 25 11 22 16 -3 5 5
15 19 22 32 18 106 86 106 98 0 15 -106 12 -146 -5 -20 -8 -52 -28 -70 -45
-19 -16 -41 -30 -49 -30 -26 0 -55 -53 -87 -157 -17 -57 -36 -102 -42 -100 -6
2 -23 59 -38 128 -35 154 -35 156 -50 141 -19 -19 -27 -14 -42 23 -8 19 -30
44 -48 55 -34 20 -95 37 -104 27 -8 -8 24 -77 36 -77 7 0 9 -8 5 -19 -5 -16 5
-25 47 -48 56 -30 65 -50 20 -45 -26 3 -26 2 8 -20 26 -17 30 -24 17 -26 -24
-5 -21 -17 10 -38 48 -31 8 -27 -109 11 -67 22 -143 39 -187 42 -72 6 -73 6
-66 -15 8 -28 -3 -28 -27 0 -20 24 -16 24 -148 -24 l-25 -10 25 -13 c25 -14
25 -14 -12 -15 -29 0 -36 -3 -32 -15 4 -10 -8 -21 -41 -35 -33 -14 -45 -25
-41 -35 3 -9 -11 -28 -40 -51 -24 -20 -42 -39 -39 -42 3 -3 11 0 17 6 7 7 18
12 26 12 12 0 11 -4 -2 -25 -21 -31 -20 -35 3 -35 11 0 22 -4 25 -9 6 -9 74
-6 111 5 11 4 32 15 48 26 l27 19 0 -22 c0 -22 1 -22 20 -4 11 10 33 38 48 62
40 63 47 53 12 -17 -35 -69 -36 -68 70 -45 126 28 140 13 42 -45 -90 -54 -376
-315 -334 -307 31 7 28 -14 -8 -48 -16 -16 -30 -35 -30 -42 0 -24 -37 -87 -69
-117 -17 -17 -31 -34 -31 -40 0 -5 10 0 23 12 28 26 37 28 37 6 0 -14 1 -14
16 0 20 20 22 20 62 -4 19 -12 32 -28 32 -40 0 -11 12 -27 28 -37 31 -20 52
-46 69 -85 15 -36 6 -40 -64 -33 -66 8 -207 -8 -273 -30 -34 -11 -54 -27 -84
-67 -54 -74 -76 -119 -70 -145 5 -20 11 -21 62 -16 35 3 65 13 78 24 15 14 35
19 75 19 84 0 89 -10 37 -66 -78 -85 -115 -149 -157 -276 -23 -68 -41 -130
-41 -139 0 -17 52 -46 57 -32 2 4 8 15 14 23 8 11 12 12 16 3 9 -24 22 -13 74
65 28 42 75 106 105 142 63 78 191 206 198 199 3 -3 -3 -29 -14 -57 -15 -39
-20 -75 -19 -145 1 -114 20 -259 35 -264 6 -2 23 28 38 67 20 56 26 89 26 156
0 70 3 84 16 84 12 0 14 7 9 30 -4 19 -3 30 4 30 6 0 11 14 11 30 0 17 9 39
19 49 12 12 17 27 14 40 -7 29 13 27 32 -3 14 -21 16 -60 14 -269 -1 -135 1
-249 4 -253 11 -18 28 -95 23 -103 -3 -5 -24 -2 -47 5 -44 15 -129 16 -168 2
-30 -11 -90 -63 -113 -96 -25 -37 -8 -62 41 -62 21 0 41 3 45 7 4 4 39 8 78 9
68 0 70 0 49 -15 -50 -36 -181 -156 -181 -166 0 -11 -20 -50 -59 -115 -13 -22
-12 -23 18 -17 21 5 35 2 43 -9 7 -8 23 -25 35 -36 39 -37 29 -45 -59 -51 -46
-3 -91 -8 -101 -12 -23 -10 -77 -88 -77 -113 0 -28 41 -36 86 -17 25 10 41 12
53 5 15 -9 14 -9 -1 -10 -10 0 -18 -4 -18 -9 0 -4 -10 -21 -21 -35 -17 -21
-24 -25 -30 -14 -7 11 -9 11 -9 -1 0 -11 -12 -12 -52 -8 -29 3 -63 8 -76 11
-13 3 -135 6 -272 7 l-249 1 -20 61 c-91 286 -131 543 -131 852 0 433 100 849
299 1245 357 711 1012 1240 1793 1449 128 34 302 67 428 80 122 12 430 13 551
1z m-131 -985 c424 -35 824 -240 1090 -560 74 -89 140 -184 140 -201 0 -14
-46 -28 -60 -19 -6 4 -16 3 -22 -2 -7 -4 -92 -8 -188 -8 -199 0 -222 -6 -255
-68 -13 -24 -34 -44 -61 -56 -22 -11 -93 -71 -156 -133 -95 -94 -119 -124
-143 -178 -15 -36 -41 -85 -57 -109 -16 -24 -31 -58 -34 -75 -9 -57 -27 -121
-37 -133 -5 -7 -20 -13 -33 -13 -13 0 -24 -4 -24 -10 0 -5 -12 -12 -27 -16
-16 -3 -40 -20 -55 -38 -23 -26 -29 -29 -38 -16 -5 8 -10 26 -10 38 0 34 -29
91 -53 103 -19 11 -19 10 -3 -12 19 -28 21 -69 3 -69 -9 0 -13 -17 -13 -55 -2
-80 -32 -107 -74 -65 -11 11 -23 20 -26 20 -3 0 -14 10 -24 22 -15 19 -20 20
-33 10 -13 -11 -19 -11 -36 0 -17 10 -27 10 -53 -1 -70 -28 -78 -27 -78 12 0
39 -16 51 -56 41 -24 -6 -34 9 -14 21 16 10 3 22 -30 29 -19 3 -29 10 -25 16
4 7 19 8 36 5 17 -4 29 -2 29 4 0 5 -10 11 -22 13 -13 2 -27 13 -32 24 -9 19
-17 22 -75 20 l-66 -1 -6 43 c-5 39 -4 42 15 37 18 -5 18 -4 5 4 -9 6 -20 27
-24 48 -4 23 -9 32 -14 24 -5 -8 -18 -10 -34 -5 -26 6 -38 24 -17 24 20 0 9
18 -15 24 -18 5 -25 13 -25 31 0 14 -5 25 -11 25 -5 0 -8 -4 -4 -10 3 -5 0
-18 -7 -29 -10 -17 -9 -23 6 -40 19 -21 19 -21 -2 -21 -28 0 -28 -2 11 -43 60
-66 77 -90 77 -113 0 -28 -16 -40 -34 -25 -8 7 -16 7 -22 1 -7 -7 -17 -4 -29
10 -10 11 -24 20 -32 20 -7 0 -13 7 -13 15 0 21 -27 30 -45 15 -21 -18 -65 -4
-65 20 0 11 5 21 10 21 6 1 15 3 20 4 6 1 15 3 21 4 7 0 0 12 -16 27 -26 24
-51 26 -27 2 16 -16 15 -28 -3 -28 -8 0 -15 5 -15 10 0 6 -7 10 -15 10 -8 0
-15 -4 -15 -10 0 -5 -20 -10 -45 -10 -25 0 -45 5 -45 10 0 6 11 10 25 10 18 0
25 5 25 20 0 20 33 29 43 13 2 -5 3 -3 1 3 -1 7 8 22 21 34 21 20 27 21 41 9
16 -13 17 -12 12 9 -5 18 -2 22 16 22 12 0 31 7 42 15 18 15 18 16 -11 40 -38
31 -79 34 -70 5 4 -13 2 -20 -6 -20 -7 0 -21 -7 -30 -16 -17 -16 -19 -15 -29
10 -13 36 -13 39 4 33 8 -3 24 5 37 19 19 20 20 24 6 24 -9 0 -17 5 -17 10 0
6 5 10 11 10 8 0 8 4 0 14 -9 11 -7 15 11 20 22 6 21 7 -12 26 -19 10 -54 19
-78 20 -36 0 -44 4 -52 25 -5 14 -17 25 -27 26 -14 0 -13 2 5 10 26 10 21 31
-6 23 -36 -12 -88 -40 -100 -54 -12 -13 -13 -13 -8 2 4 14 1 16 -17 9 -32 -12
-107 -12 -107 -1 0 6 4 10 10 10 5 0 7 7 3 16 -5 14 -3 15 15 5 18 -9 23 -8
32 8 5 11 7 27 4 35 -3 9 -2 16 4 16 5 0 9 8 8 17 0 10 8 19 19 21 11 2 23 9
27 16 10 15 -19 35 -42 29 -15 -4 -20 0 -20 16 0 22 -9 24 -50 11 -23 -7 -24
-8 -5 -14 52 -19 73 -46 36 -46 -12 0 -21 6 -21 15 0 9 -9 15 -25 15 -14 0
-25 5 -25 10 0 6 -16 10 -35 10 -28 0 -35 4 -35 20 0 14 -5 18 -17 13 -12 -5
-15 -2 -10 10 5 13 1 17 -18 17 -14 0 -25 2 -25 5 0 11 35 60 52 73 10 7 18
18 18 24 0 19 32 48 53 48 13 0 17 5 14 15 -9 23 10 32 99 44 28 4 63 15 78
25 19 12 37 15 57 11 38 -9 41 20 3 29 -20 5 -24 10 -16 18 8 8 15 8 25 -1 8
-6 21 -9 30 -5 24 9 29 -12 7 -31 -25 -23 -26 -39 -1 -32 11 3 28 -1 39 -9 11
-7 22 -10 26 -7 3 3 6 -5 6 -18 0 -13 3 -35 7 -49 5 -22 2 -20 -29 14 -25 28
-40 37 -53 32 -20 -7 -21 -7 65 -109 60 -71 81 -78 50 -16 -11 21 -19 39 -17
39 2 0 18 -5 35 -11 28 -9 30 -14 29 -50 -2 -40 -2 -40 57 -65 65 -26 80 -29
71 -14 -17 28 90 -8 128 -43 16 -15 32 -26 34 -23 6 6 -69 104 -122 160 -46
48 -165 180 -192 213 -24 28 -144 75 -202 78 -25 2 -48 4 -50 4 -11 2 47 54
117 104 156 111 347 199 541 248 120 31 339 59 406 53 22 -2 69 -6 105 -9z
m-1110 -75 c0 -10 -63 -40 -86 -40 -25 0 -15 20 19 34 38 17 67 20 67 6z
m2217 -36 c41 -16 52 -27 35 -38 -11 -7 -92 31 -92 44 0 14 7 13 57 -6z
m-2473 -45 c27 -32 33 -49 16 -49 -11 0 -69 60 -70 73 0 18 30 4 54 -24z m445
-1 c46 0 3 -21 -49 -24 -36 -1 -50 2 -50 11 0 18 20 25 50 19 14 -3 36 -6 49
-6z m2249 -47 c-31 -36 -48 -42 -48 -20 0 6 13 24 30 40 43 43 58 26 18 -20z
m-530 24 c55 -12 78 -13 94 -4 15 8 27 8 44 0 35 -16 29 -31 -11 -31 -19 0
-58 -9 -85 -19 l-51 -20 -65 41 c-35 22 -64 42 -64 44 0 9 69 3 138 -11z
m-2293 -60 l30 -25 -45 0 c-62 0 -79 12 -49 34 29 20 28 20 64 -9z m3005 -42
c0 -7 -10 -13 -22 -13 -13 0 -33 -3 -45 -6 -30 -8 -30 12 -1 36 18 14 27 15
45 7 13 -6 23 -16 23 -24z m-2650 -43 c0 -5 -9 -10 -20 -10 -11 0 -20 5 -20
10 0 6 9 10 20 10 11 0 20 -4 20 -10z m2254 -29 c6 -9 -28 -26 -76 -37 -17 -4
-28 -2 -28 5 0 25 91 53 104 32z m-2529 -81 c3 -5 -12 -47 -34 -92 -23 -46
-52 -126 -67 -178 -14 -52 -45 -138 -68 -190 -24 -52 -51 -117 -61 -143 -17
-44 -47 -72 -67 -61 -12 8 -5 69 9 79 8 6 15 26 15 45 1 24 11 46 31 69 31 37
62 99 53 109 -11 11 -82 -18 -118 -48 -20 -17 -49 -55 -64 -86 -15 -30 -32
-53 -38 -51 -23 9 -166 120 -166 129 0 5 15 29 33 53 21 29 40 44 54 45 15 0
31 13 45 35 13 19 34 39 48 43 14 5 63 39 109 76 79 63 208 153 241 168 22 10
38 9 45 -2z m145 -4 c0 -3 -4 -8 -10 -11 -5 -3 -10 -1 -10 4 0 6 5 11 10 11 6
0 10 -2 10 -4z m2504 -64 c3 -15 8 -47 12 -70 4 -32 9 -41 17 -33 20 20 25 12
32 -44 4 -30 11 -55 16 -55 5 0 9 -16 9 -35 0 -19 5 -35 10 -35 6 0 10 13 10
29 0 17 4 32 9 35 4 3 11 -34 14 -82 3 -53 15 -118 31 -167 49 -151 27 -154
-34 -4 -41 102 -102 215 -158 294 l-35 49 12 60 c20 97 43 121 55 58z m203 15
c15 -12 53 -39 83 -58 30 -20 93 -66 138 -103 46 -36 90 -66 97 -66 7 0 25
-16 39 -35 15 -19 35 -35 45 -35 23 0 95 -86 88 -105 -7 -16 -157 -124 -173
-125 -7 0 -15 12 -19 27 -14 56 -67 115 -130 144 -80 37 -84 19 -20 -77 26
-38 45 -78 45 -94 0 -15 6 -33 14 -39 8 -7 14 -20 14 -29 0 -9 1 -24 3 -32 6
-22 -45 -17 -108 10 -60 25 -80 61 -62 108 21 53 -39 307 -102 435 -21 43 -39
83 -39 88 0 18 59 8 87 -14z m-2367 -122 c0 -8 -2 -15 -4 -15 -2 0 -6 7 -10
15 -3 8 -1 15 4 15 6 0 10 -7 10 -15z m-511 -174 c10 -7 4 -17 -25 -44 -51
-46 -70 -34 -42 28 11 26 40 33 67 16z m2361 -41 c0 -5 -5 -10 -11 -10 -5 0
-7 5 -4 10 3 6 8 10 11 10 2 0 4 -4 4 -10z m-2270 -4 c0 -3 -4 -8 -10 -11 -5
-3 -10 -1 -10 4 0 6 5 11 10 11 6 0 10 -2 10 -4z m2355 -7 c27 -7 47 -18 50
-29 3 -10 13 -21 23 -25 13 -5 7 -11 -26 -25 -40 -18 -72 -18 -72 0 0 4 -10 8
-22 8 -13 0 -57 9 -98 20 l-75 19 31 16 c28 15 32 14 60 -4 16 -10 42 -19 57
-19 24 0 26 2 17 19 -19 36 -14 37 55 20z m285 -18 c0 -4 -7 -17 -16 -29 -14
-21 -14 -22 7 -19 12 1 24 -4 26 -10 3 -8 -5 -13 -21 -13 -23 0 -26 -3 -20
-25 3 -14 2 -25 -4 -25 -13 0 -23 26 -16 43 3 8 -2 20 -11 27 -20 17 -19 29 6
51 19 16 49 16 49 0z m-497 -57 l29 -24 -27 0 c-17 0 -24 -4 -19 -11 3 -6 0
-15 -7 -20 -19 -12 -49 -11 -49 1 0 6 9 10 20 10 11 0 20 5 20 10 0 6 -16 10
-35 10 -24 0 -35 -5 -35 -15 0 -10 -10 -15 -30 -15 -16 0 -30 5 -30 10 0 6 6
10 14 10 7 0 28 15 47 34 38 39 56 38 102 0z m-2303 5 c0 -5 -11 -9 -25 -9
-26 0 -34 15 -12 23 16 5 37 -3 37 -14z m2620 -59 c0 -5 -7 -10 -16 -10 -8 0
-12 5 -9 10 3 6 10 10 16 10 5 0 9 -4 9 -10z m-2225 -101 c0 -54 3 -64 19 -67
16 -3 18 0 12 22 -3 14 -2 26 3 26 6 0 6 12 1 29 -4 16 -6 32 -3 35 9 9 33 -6
33 -21 0 -24 29 -46 52 -40 16 5 18 3 9 -6 -17 -17 -13 -34 12 -41 l22 -7 -21
-9 c-16 -6 -20 -15 -17 -34 6 -28 -13 -36 -35 -14 -17 17 -82 38 -119 38 -18
0 -33 2 -33 4 0 2 -3 11 -6 20 -4 12 0 16 15 16 38 0 22 29 -29 55 -27 14 -50
30 -50 35 0 13 17 13 25 0 5 -8 11 -7 21 1 12 10 15 10 12 -2 -2 -8 7 -15 20
-17 12 -2 22 -8 22 -13 0 -5 5 -9 11 -9 7 0 9 12 4 36 -5 28 -3 35 7 32 9 -3
13 -25 13 -69z m1765 62 c0 -18 -18 -21 -30 -6 -10 13 -9 15 9 15 11 0 21 -4
21 -9z m94 -7 c9 -8 16 -20 16 -26 0 -13 -42 14 -48 30 -5 17 14 15 32 -4z
m348 -6 c-6 -6 -19 -7 -29 -3 -17 7 -17 8 2 15 24 9 41 2 27 -12z m191 0 c-13
-12 -25 -19 -29 -15 -10 10 16 37 34 37 13 0 12 -4 -5 -22z m-2663 -7 c0 -11
-59 -36 -67 -28 -3 4 0 13 7 22 13 16 60 21 60 6z m1950 -2 c0 -7 11 -8 29 -4
16 3 32 2 35 -4 4 -6 13 -8 21 -4 10 3 13 0 10 -8 -11 -30 34 -59 89 -59 38 0
48 -16 19 -27 -39 -14 -32 -53 8 -53 11 0 19 -4 19 -10 0 -5 7 -10 16 -10 8 0
13 -4 10 -9 -3 -5 -45 -15 -93 -22 -70 -10 -96 -18 -125 -41 -20 -16 -35 -35
-32 -42 7 -17 -15 -34 -50 -38 -24 -2 -30 -9 -33 -31 -2 -16 1 -35 7 -42 8
-10 8 -15 0 -20 -15 -10 -21 -2 -27 37 -3 18 -10 36 -15 39 -6 4 -7 16 -3 28
7 22 0 27 -40 33 -11 2 -19 -2 -18 -7 1 -6 -7 -11 -17 -11 -10 0 -16 5 -13 11
16 28 38 45 60 45 15 0 22 4 18 11 -4 6 -14 8 -22 5 -8 -3 -11 -1 -8 4 3 6 16
10 28 10 17 0 19 2 7 9 -8 6 -28 8 -45 5 l-30 -5 23 17 c26 19 29 34 6 34 -14
0 -14 3 -3 16 7 9 21 13 32 10 11 -3 33 2 49 10 16 8 33 12 38 9 12 -7 50 12
50 25 0 6 -7 10 -17 10 -9 0 -13 3 -10 7 4 3 2 12 -4 20 -9 10 -6 13 15 13 14
0 26 5 26 10 0 6 -9 10 -20 10 -20 0 -26 11 -13 23 10 11 23 8 23 -4z m238
-41 c9 -9 18 -9 37 0 14 7 37 12 50 12 24 0 24 0 7 -30 -19 -33 -30 -36 -57
-16 -10 7 -27 11 -38 8 -17 -4 -36 11 -37 31 0 11 25 8 38 -5z m562 -23 c-12
-14 -50 -22 -50 -9 0 3 10 14 23 24 25 21 47 10 27 -15z m-2860 11 c0 -3 -4
-8 -10 -11 -5 -3 -10 -1 -10 4 0 6 5 11 10 11 6 0 10 -2 10 -4z m545 -6 c3 -5
1 -10 -4 -10 -6 0 -11 5 -11 10 0 6 2 10 4 10 3 0 8 -4 11 -10z m-924 -32 c39
-22 50 -38 27 -38 -19 0 -78 38 -78 50 0 14 7 13 51 -12z m2359 7 c-7 -9 -15
-13 -17 -11 -7 7 7 26 19 26 6 0 6 -6 -2 -15z m470 -15 c0 -5 -7 -10 -15 -10
-8 0 -15 5 -15 10 0 6 7 10 15 10 8 0 15 -4 15 -10z m900 -17 c0 -15 -79 -53
-85 -42 -4 6 -5 12 -4 13 44 33 89 48 89 29z m-860 -13 c0 -5 -2 -10 -4 -10
-3 0 -8 5 -11 10 -3 6 -1 10 4 10 6 0 11 -4 11 -10z m-2002 -70 c17 -11 32
-24 32 -29 0 -5 2 -16 5 -24 5 -10 -1 -13 -26 -9 -22 3 -27 7 -18 14 11 7 8
13 -13 31 -47 39 -34 50 20 17z m2621 -9 c13 -23 5 -31 -31 -31 -32 0 -49 27
-27 41 23 14 48 10 58 -10z m-2733 -59 c15 -8 16 -13 5 -26 -11 -13 -11 -17 3
-22 26 -10 18 -25 -9 -18 -27 7 -35 -12 -13 -34 7 -7 8 -12 2 -12 -5 0 -18 12
-29 27 -11 15 -32 40 -47 55 -37 38 -35 48 7 48 28 0 33 3 28 17 -5 13 -2 12
14 -4 11 -11 29 -25 39 -31z m194 44 c0 -3 -4 -8 -10 -11 -5 -3 -10 -1 -10 4
0 6 5 11 10 11 6 0 10 -2 10 -4z m1750 -81 c0 -18 -51 -45 -86 -45 -22 0 -25
2 -14 15 7 8 20 15 29 15 9 1 27 7 41 15 31 18 30 18 30 0z m-205 -15 c-9 -29
28 -27 48 3 15 21 15 20 10 -20 -5 -39 -4 -43 16 -43 12 0 19 -4 16 -10 -3 -5
-15 -10 -26 -10 -11 0 -22 -6 -25 -14 -8 -21 -34 -28 -50 -15 -8 6 -25 8 -39
5 -18 -5 -25 -2 -25 8 0 8 6 17 13 19 6 3 -4 6 -23 6 l-35 1 40 27 c22 15 46
35 53 45 18 24 35 23 27 -2z m-278 -38 c-23 -25 -21 -35 2 -22 39 20 55 6 26
-24 -23 -22 -19 -49 5 -43 11 3 20 1 20 -4 0 -5 -7 -9 -16 -9 -8 0 -12 -4 -9
-10 3 -5 15 -10 26 -10 10 0 19 -4 19 -10 0 -5 -5 -10 -12 -10 -6 0 -3 -9 7
-20 21 -23 46 -25 78 -8 12 6 36 12 52 14 17 1 40 5 53 9 17 6 22 3 22 -9 0
-9 -10 -27 -22 -40 -25 -25 -32 -66 -12 -66 7 0 18 -2 26 -3 7 -2 10 -2 5 0
-4 3 -5 9 -1 14 3 5 10 7 15 4 11 -7 12 -45 2 -45 -24 1 -87 30 -95 44 -5 9
-17 16 -26 16 -9 0 -44 11 -77 25 -33 13 -76 25 -96 25 -52 0 -99 11 -99 23 0
6 20 7 55 3 45 -5 55 -3 55 9 0 9 -6 12 -15 9 -21 -8 -30 22 -17 52 7 13 7 24
2 24 -5 0 -8 10 -8 23 2 24 25 57 41 57 6 0 3 -8 -6 -18z m1238 -64 c-18 -46
-45 -122 -61 -170 -15 -49 -32 -88 -36 -88 -4 0 -8 50 -8 112 l0 111 58 59
c33 32 64 58 70 58 6 0 -4 -37 -23 -82z m-3170 62 c8 -13 -15 -13 -35 0 -12 8
-11 10 7 10 12 0 25 -4 28 -10z m320 -10 c3 -5 -1 -10 -9 -10 -8 0 -18 5 -21
10 -3 6 1 10 9 10 8 0 18 -4 21 -10z m57 -32 c-12 -12 -35 -1 -27 12 3 5 13 6
21 3 10 -4 12 -9 6 -15z m288 7 c0 -8 -4 -15 -10 -15 -5 0 -10 7 -10 15 0 8 5
15 10 15 6 0 10 -7 10 -15z m1337 -7 c-3 -8 -6 -5 -6 6 -1 11 2 17 5 13 3 -3
4 -12 1 -19z m638 12 c-3 -5 -13 -10 -21 -10 -8 0 -12 5 -9 10 3 6 13 10 21
10 8 0 12 -4 9 -10z m-2668 -25 c-4 -25 -3 -25 19 -10 26 17 42 4 19 -15 -20
-17 -19 -40 3 -56 23 -18 32 -17 32 4 0 23 79 -140 82 -170 3 -21 0 -23 -39
-20 -36 3 -43 0 -43 -15 0 -10 6 -27 14 -38 7 -11 16 -41 19 -66 5 -41 3 -49
-19 -70 -14 -13 -30 -43 -36 -66 -13 -54 -24 -62 -40 -28 -9 21 -8 32 5 61 16
33 22 64 12 64 -2 0 -15 -5 -28 -11 -20 -9 -28 -7 -53 16 -19 18 -29 38 -31
60 -2 42 11 52 35 29 16 -17 17 -16 26 24 8 36 12 41 29 36 16 -5 19 -3 13 11
-4 11 0 22 11 31 17 13 17 13 1 14 -11 0 -18 8 -18 19 0 10 -6 21 -14 24 -18
7 -15 65 3 76 11 7 11 14 -3 41 -18 38 -21 80 -5 80 7 0 9 -10 6 -25z m239
-16 c8 -14 -20 -10 -41 5 -18 13 -18 14 8 9 15 -3 30 -9 33 -14z m2530 -32
c-3 -14 -15 -27 -26 -30 -13 -3 -18 -10 -14 -21 4 -11 0 -16 -14 -16 -32 0
-35 17 -12 55 37 59 80 67 66 12z m-2139 6 c21 -20 23 -24 8 -18 -11 5 -32 9
-47 10 -16 2 -31 3 -35 4 -6 1 17 17 44 30 1 1 15 -11 30 -26z m1803 19 c0
-12 -23 -32 -37 -32 -11 0 -11 4 -1 20 13 20 38 28 38 12z m-60 -27 c0 -7 -7
-16 -16 -19 -10 -4 -14 -12 -10 -23 7 -18 -9 -33 -36 -33 -28 0 -21 26 15 63
32 34 47 37 47 12z m-1312 -1 c24 -7 11 -22 -19 -20 -39 1 -48 -17 -17 -32 23
-11 23 -11 -4 -11 -21 -1 -28 4 -28 18 0 10 -7 24 -15 31 -26 22 -16 30 28 24
23 -3 48 -7 55 -10z m1500 -22 c3 -9 -2 -13 -14 -10 -9 1 -19 9 -22 16 -3 9 2
13 14 10 9 -1 19 -9 22 -16z m-2080 -20 c-21 -4 -24 -18 -5 -25 7 -3 6 -6 -5
-6 -20 -1 -32 15 -24 34 3 9 13 11 28 7 18 -5 20 -7 6 -10z m-147 -2 c5 0 9
-4 9 -10 0 -12 -47 -13 -54 -1 -8 12 6 22 22 16 7 -3 18 -5 23 -5z m399 -25
c0 -7 9 -15 20 -18 25 -6 27 -27 3 -27 -23 0 -90 24 -100 35 -5 4 4 5 20 1 22
-5 27 -3 27 13 0 14 5 19 15 15 8 -4 15 -12 15 -19z m-340 -30 c0 -9 10 -20
23 -25 21 -8 21 -9 2 -9 -12 -1 -26 4 -33 11 -15 15 -16 38 -2 38 6 0 10 -7
10 -15z m2120 6 c0 -7 -56 -61 -63 -61 -3 0 -17 4 -32 10 -23 9 -24 12 -13 30
7 11 18 18 25 16 7 -3 15 -2 17 3 6 9 66 11 66 2z m-2011 -16 c26 -13 41 -33
41 -55 0 -4 -11 -11 -25 -14 -15 -4 -30 -17 -35 -31 -5 -14 -16 -25 -25 -25
-19 0 -20 -26 0 -34 8 -3 15 -10 15 -16 0 -15 -36 -12 -50 5 -10 13 -10 19 2
33 9 9 13 23 11 29 -7 19 17 123 28 123 6 0 23 -7 38 -15z m1801 0 c10 -12 9
-16 -5 -21 -19 -8 -46 5 -53 24 -5 17 43 15 58 -3z m435 5 c-3 -5 -11 -10 -16
-10 -6 0 -7 5 -4 10 3 6 11 10 16 10 6 0 7 -4 4 -10z m-1115 -10 c0 -5 -4 -10
-10 -10 -5 0 -10 5 -10 10 0 6 5 10 10 10 6 0 10 -4 10 -10z m1295 -9 c-3 -6
-14 -11 -23 -11 -15 1 -15 2 2 15 21 16 32 13 21 -4z m-1755 -26 c0 -8 -4 -15
-9 -15 -13 0 -22 16 -14 24 11 11 23 6 23 -9z m973 -12 c-7 -2 -19 -2 -25 0
-7 3 -2 5 12 5 14 0 19 -2 13 -5z m617 -27 c0 -8 -16 -16 -39 -20 -27 -4 -40
-12 -44 -26 -3 -12 -14 -20 -25 -20 -13 0 -22 -8 -24 -21 -3 -22 -32 -48 -42
-38 -9 9 34 90 44 84 6 -4 10 2 10 13 0 13 11 23 33 30 48 15 87 14 87 -2z
m-1452 -34 c6 -15 13 -35 17 -44 4 -11 3 -18 -4 -18 -6 0 -11 5 -11 11 0 6
-11 25 -25 43 -14 18 -22 35 -19 39 11 11 33 -5 42 -31z m-1010 -9 c17 -13 32
-31 32 -38 0 -8 9 -20 20 -27 11 -7 20 -18 20 -25 0 -7 8 -16 17 -22 16 -9 15
-12 -8 -33 l-26 -24 -33 32 c-20 20 -30 39 -27 48 4 10 1 13 -9 9 -17 -6 -59
80 -50 103 6 17 14 14 64 -23z m870 9 c2 -7 -3 -12 -12 -12 -9 0 -16 7 -16 16
0 17 22 14 28 -4z m1852 1 c0 -17 -21 -16 -56 2 l-29 15 42 -3 c26 -1 43 -7
43 -14z m-1790 -50 c0 -7 -4 -13 -8 -13 -10 0 -32 45 -32 63 1 16 39 -34 40
-50z m164 51 c9 -3 16 -12 16 -19 0 -9 -9 -10 -39 -2 -22 6 -38 14 -35 19 6 9
36 11 58 2z m224 -12 c3 -9 -2 -13 -14 -10 -9 1 -19 9 -22 16 -3 9 2 13 14 10
9 -1 19 -9 22 -16z m755 -23 c33 -38 33 -43 5 -56 -20 -9 -17 -12 32 -21 l55
-10 -51 -1 c-62 -1 -88 18 -97 71 -9 58 13 65 56 17z m-829 -19 c15 -32 9 -36
-29 -20 -19 7 -19 8 -2 15 14 6 15 10 6 21 -7 9 -8 14 -1 14 6 0 17 -13 26
-30z m943 -15 c6 -14 9 -25 6 -25 -7 0 -32 33 -33 43 0 16 16 5 27 -18z
m-1709 -16 c2 -23 2 -23 -13 -5 -18 24 -20 39 -2 34 6 -3 13 -15 15 -29z m507
21 c3 -5 2 -10 -4 -10 -5 0 -13 5 -16 10 -3 6 -2 10 4 10 5 0 13 -4 16 -10z
m1445 -4 c0 -3 -4 -8 -10 -11 -5 -3 -10 -1 -10 4 0 6 5 11 10 11 6 0 10 -2 10
-4z m257 -28 c-3 -7 -5 -2 -5 12 0 14 2 19 5 13 2 -7 2 -19 0 -25z m-1547 2
c0 -5 -7 -10 -16 -10 -8 0 -12 5 -9 10 3 6 10 10 16 10 5 0 9 -4 9 -10z m845
-12 c6 -6 -17 -8 -65 -4 -118 8 -118 8 -85 15 39 9 137 2 150 -11z m-679 -10
c4 -6 2 -13 -4 -17 -5 -3 -11 -15 -13 -26 -3 -14 -13 -20 -34 -22 -75 -5 -110
-15 -132 -39 -13 -14 -21 -29 -18 -33 7 -12 -104 -63 -121 -57 -8 3 -14 13
-12 22 3 19 -66 61 -109 66 -15 2 -28 8 -30 14 -4 13 24 22 102 34 28 4 57 10
65 14 8 3 21 2 29 -3 13 -8 13 -12 0 -27 -13 -16 -12 -17 16 -10 43 11 51 22
31 45 -17 18 -16 19 31 23 26 2 61 1 77 -2 22 -4 36 0 53 16 23 22 57 22 69 2z
m294 8 c0 -3 -4 -8 -10 -11 -5 -3 -10 -1 -10 4 0 6 5 11 10 11 6 0 10 -2 10
-4z m-823 -12 c-3 -3 -12 -4 -19 -1 -8 3 -5 6 6 6 11 1 17 -2 13 -5z m893 -40
c0 -19 -4 -34 -9 -34 -5 0 -24 -3 -42 -6 -33 -6 -33 -6 -14 11 l20 17 -20 -7
c-11 -4 -38 -8 -60 -10 -38 -4 -37 -2 35 33 41 21 78 36 83 34 4 -2 7 -19 7
-38z m606 18 c-40 -5 -103 8 -87 17 7 4 36 3 64 -3 43 -9 47 -11 23 -14z m154
18 c0 -5 -5 -10 -11 -10 -5 0 -7 5 -4 10 3 6 8 10 11 10 2 0 4 -4 4 -10z
m-2280 -26 c0 -14 -12 -19 -23 -8 -9 9 4 35 14 28 5 -3 9 -12 9 -20z m384 -26
c-4 -6 -13 0 -20 13 -20 36 -16 47 6 20 11 -12 17 -28 14 -33z m1575 21 c238
-23 282 -30 281 -44 -1 -12 -160 -8 -205 5 -56 16 -105 21 -105 11 0 -14 67
-34 93 -27 12 3 28 1 35 -3 31 -19 -38 -19 -163 -1 -144 21 -198 38 -191 57 4
9 -5 13 -27 13 -18 0 -43 3 -57 6 -24 5 -25 5 -5 -11 11 -9 31 -19 45 -22 14
-4 31 -13 39 -20 11 -12 11 -16 -5 -28 -16 -12 -17 -17 -6 -35 7 -12 10 -29 7
-39 -8 -25 3 -28 135 -30 122 -3 137 -6 120 -26 -6 -7 -8 -19 -4 -28 6 -17
-11 -31 -27 -21 -8 4 -8 9 0 17 6 6 11 14 11 17 0 11 -154 9 -167 -2 -7 -6
-14 -25 -14 -42 l-2 -31 -6 35 c-7 43 -42 50 -51 11 -8 -37 -33 -40 -28 -5 l3
29 -60 -1 c-60 0 -60 -1 -57 -28 4 -34 -21 -32 -26 2 -3 21 -9 22 -92 22 -70
0 -91 -3 -98 -16 -8 -14 -10 -14 -21 0 -22 27 -76 -11 -65 -46 3 -10 0 -18 -7
-18 -9 0 -9 -3 0 -14 16 -19 4 -25 -58 -30 -28 -3 -60 -7 -71 -11 -13 -4 -20
-2 -20 7 0 8 15 14 43 15 56 3 87 11 87 23 0 6 -3 9 -7 9 -5 -1 -17 0 -28 1
-16 1 -15 4 10 15 35 16 29 18 -41 15 -56 -2 -71 9 -54 40 7 13 21 20 40 20
16 0 53 5 82 11 57 12 87 29 50 29 -12 0 -22 5 -22 10 0 6 5 10 10 10 13 0 13
27 -1 32 -24 8 9 54 47 66 44 13 60 7 20 -8 -23 -8 -25 -12 -14 -29 17 -28 41
-31 90 -14 24 8 53 15 65 16 12 1 29 11 38 22 14 19 15 18 13 -20 -2 -28 -8
-40 -18 -40 -8 0 -18 -4 -22 -10 -4 -5 -22 -11 -40 -11 -18 -1 -53 -7 -78 -14
-64 -17 -34 -28 86 -30 124 -2 204 8 211 27 3 8 -5 28 -17 45 -22 30 -22 32
-5 45 11 7 15 14 9 14 -21 3 -50 -4 -62 -13 -16 -14 -18 -11 -25 44 -5 39 -4
47 11 52 25 7 161 -1 391 -25z m231 21 c12 -8 11 -10 -7 -10 -13 0 -23 5 -23
10 0 13 11 13 30 0z m-2296 -81 c-6 -11 -34 -12 -34 -1 0 4 -3 18 -7 32 l-6
25 26 -24 c15 -13 24 -28 21 -32z m396 31 c0 -13 -11 -13 -30 0 -12 8 -11 10
8 10 12 0 22 -4 22 -10z m-277 -25 c-6 -18 -19 -19 -29 -4 -7 12 15 31 28 23
4 -3 5 -11 1 -19z m-223 0 c0 -8 -2 -15 -4 -15 -2 0 -6 7 -10 15 -3 8 -1 15 4
15 6 0 10 -7 10 -15z m807 -1 c-3 -3 -12 -4 -19 -1 -8 3 -5 6 6 6 11 1 17 -2
13 -5z m798 -14 c8 -13 -5 -13 -25 0 -13 8 -13 10 2 10 9 0 20 -4 23 -10z
m-1336 -36 c-18 -22 -2 -30 21 -9 12 11 26 15 37 10 15 -6 9 -11 -27 -29 -49
-25 -61 -21 -66 20 -4 38 3 46 27 33 16 -8 18 -13 8 -25z m1529 5 c-10 -5 -18
-17 -18 -24 0 -8 -4 -15 -10 -15 -14 0 -13 23 2 38 7 7 19 12 28 12 12 -1 12
-2 -2 -11z m402 -3 c0 -3 -4 -8 -10 -11 -5 -3 -10 -1 -10 4 0 6 5 11 10 11 6
0 10 -2 10 -4z m-750 -31 c0 -6 -34 -11 -77 -12 -73 -3 -76 -2 -53 12 28 16
130 16 130 0z m-532 -22 c2 -8 -5 -13 -17 -13 -21 0 -35 13 -24 24 10 10 36 3
41 -11z m-1158 -14 c0 -5 -4 -9 -10 -9 -5 0 -10 7 -10 16 0 8 5 12 10 9 6 -3
10 -10 10 -16z m413 10 c44 -12 68 -53 43 -73 -8 -6 -17 -21 -21 -34 -6 -20
-4 -22 12 -14 10 6 37 16 60 23 34 10 41 15 32 26 -6 7 -8 13 -3 14 31 2 59
11 77 24 47 33 46 12 -1 -40 -46 -50 -50 -59 -46 -93 6 -40 34 -102 46 -102 4
0 10 12 14 28 3 15 18 52 34 84 20 41 31 53 39 45 8 -8 11 -6 11 7 0 22 24 15
28 -8 4 -17 -9 -48 -83 -211 -12 -27 -32 -76 -45 -108 -12 -31 -26 -60 -30
-62 -5 -3 -18 11 -29 31 -19 32 -25 35 -51 29 -26 -6 -31 -3 -40 20 -23 59
-23 75 -3 75 31 0 41 18 33 57 -5 19 -13 40 -19 46 -6 6 -11 18 -11 26 0 8
-19 37 -42 64 -38 46 -40 51 -24 62 16 12 16 14 -4 20 -25 8 -54 50 -45 65 8
13 20 13 68 -1z m2206 -5 c13 -12 -21 -19 -97 -22 -73 -2 -84 -1 -67 10 35 22
143 29 164 12z m-2325 -10 c3 -9 4 -19 1 -24 -6 -9 -105 21 -105 33 0 4 22 7
49 7 35 0 51 -4 55 -16z m950 7 c3 -4 -6 -19 -20 -32 l-24 -23 -22 22 -22 21
25 10 c31 12 56 13 63 2z m-1324 -41 c0 -5 -4 -10 -10 -10 -5 0 -10 5 -10 10
0 6 5 10 10 10 6 0 10 -4 10 -10z m917 -28 c1 -15 -5 -54 -14 -87 -8 -33 -16
-68 -17 -78 -1 -9 -8 -23 -14 -29 -16 -16 -15 -28 2 -28 8 0 13 -8 11 -17 -2
-10 -4 -23 -4 -29 -1 -7 -21 -9 -58 -6 -32 2 -59 6 -61 7 -11 10 125 295 141
295 7 0 13 -12 14 -28z m138 18 c6 -9 1 -12 -35 -14 -11 -1 -14 -11 -12 -41 4
-43 12 -58 19 -37 3 6 18 12 35 12 22 0 29 4 25 14 -7 18 15 27 34 15 22 -14
51 -11 72 8 18 17 19 17 32 -1 8 -10 19 -15 25 -11 8 5 11 1 8 -11 -2 -11 -13
-20 -24 -22 -12 -2 -26 -14 -32 -28 -7 -13 -16 -24 -22 -24 -5 0 -10 -6 -10
-14 0 -27 -64 -64 -111 -65 -24 0 -53 -1 -64 -3 -15 -2 -19 2 -18 17 2 11 6
58 9 105 3 47 7 91 10 98 4 14 50 16 59 2z m-830 -40 c3 -5 -1 -10 -9 -10 -8
0 -18 5 -21 10 -3 6 1 10 9 10 8 0 18 -4 21 -10z m1695 0 c0 -5 -4 -10 -10
-10 -5 0 -10 5 -10 10 0 6 5 10 10 10 6 0 10 -4 10 -10z m-1537 -111 c51 -35
66 -60 87 -148 10 -44 10 -55 -1 -62 -17 -10 -35 5 -43 36 -3 13 -15 29 -26
35 -11 6 -20 21 -20 35 0 13 -21 50 -50 86 -27 34 -50 71 -50 83 0 19 2 18 28
-6 15 -13 49 -40 75 -59z m1146 49 c-2 -18 -2 -48 -1 -67 l2 -34 43 7 c39 5
40 5 23 -9 -16 -12 -19 -26 -18 -67 1 -29 -2 -60 -8 -68 -7 -11 -10 0 -10 42
0 31 -5 60 -11 63 -6 4 -12 5 -13 4 -2 -2 -6 -49 -10 -103 -6 -91 -5 -98 10
-85 14 12 16 11 13 -6 -6 -27 -51 -42 -83 -27 -24 11 -24 13 -11 39 8 15 15
39 15 53 1 14 7 42 15 64 16 46 10 76 -11 49 -12 -16 -12 -16 -7 7 4 13 12 36
20 50 7 14 13 30 13 35 0 18 21 85 26 85 3 0 4 -15 3 -32z m-1479 8 c0 -2 -11
-29 -25 -59 -30 -65 -59 -192 -51 -223 6 -22 -15 -54 -34 -54 -5 0 -15 -3 -24
-6 -23 -9 -20 12 14 81 16 33 25 64 21 68 -14 14 -57 -10 -89 -49 l-31 -37
-35 24 c-20 13 -36 29 -36 34 1 13 25 45 34 45 6 0 75 52 121 93 51 43 135 96
135 83z m103 -75 c4 -18 6 -40 5 -49 -5 -22 -38 38 -38 68 0 32 23 19 33 -19z
m2133 2 c-11 -11 -17 4 -9 23 7 18 8 18 11 1 2 -10 1 -21 -2 -24z m789 -40
c-3 -13 -10 -21 -15 -18 -14 9 -12 69 3 84 10 10 13 7 15 -15 2 -14 1 -37 -3
-51z m-2840 13 c20 -30 35 -60 33 -68 -3 -7 6 -21 18 -31 12 -9 28 -33 34 -52
6 -19 15 -35 20 -35 7 0 40 -55 40 -67 0 -1 -20 -3 -44 -3 -39 0 -48 4 -75 37
-36 43 -51 101 -30 114 11 6 10 9 -4 14 -9 4 -21 23 -26 44 -30 118 -23 129
34 47z m2176 9 c44 8 49 -2 17 -32 -34 -30 -66 -45 -73 -33 -3 5 -12 10 -18
10 -7 0 -6 -4 3 -10 8 -5 11 -10 6 -10 -5 0 -18 7 -28 17 -19 17 -23 11 -18
-31 1 -11 -3 -16 -12 -14 -7 3 -12 12 -12 21 1 8 -7 18 -18 20 -15 4 -18 1
-13 -13 6 -20 -27 -50 -57 -50 -25 0 -23 26 2 33 15 4 20 14 20 37 0 27 3 32
20 27 10 -3 24 1 31 9 6 8 20 14 30 14 10 0 23 9 30 21 l11 21 20 -22 c17 -18
27 -20 59 -15z m-691 22 c-3 -3 -27 -7 -55 -11 -28 -4 -45 -3 -38 2 13 8 102
17 93 9z m-1585 -79 c31 -62 38 -88 44 -168 4 -52 6 -99 3 -103 -2 -5 -16 2
-31 15 -14 14 -48 35 -74 49 -48 23 -49 25 -44 63 5 34 58 216 64 216 1 0 18
-33 38 -72z m1890 62 c3 -5 14 -10 24 -10 23 0 33 -34 17 -53 -15 -19 -137 -7
-185 18 -32 16 -33 18 -15 28 10 6 43 11 72 12 28 1 55 5 59 8 9 10 21 9 28
-3z m-250 -9 c-6 -5 -27 -14 -47 -21 -42 -13 -51 -37 -16 -42 21 -3 21 -3 -5
-33 -21 -24 -26 -26 -27 -12 0 10 -7 32 -16 48 -20 40 -6 57 49 62 23 2 49 4
57 5 8 1 10 -1 5 -7z m1197 -26 c11 -41 -7 -53 -21 -14 -14 41 -14 52 1 47 7
-3 15 -17 20 -33z m-792 17 c0 -17 -42 -53 -58 -50 -10 2 -18 15 -20 31 -3 25
-1 27 37 27 23 0 41 -4 41 -8z m999 -14 c15 -13 40 -32 55 -43 32 -23 66 -56
66 -64 0 -7 -75 -61 -84 -61 -3 0 -6 6 -6 14 0 8 -19 30 -41 50 -40 34 -41 36
-35 80 4 26 10 46 13 46 3 0 17 -10 32 -22z m-509 -33 c-16 -19 -70 -20 -70
-1 0 16 61 36 74 25 5 -5 4 -15 -4 -24z m-1032 0 c0 -14 -4 -25 -8 -25 -10 0
-20 37 -12 44 12 12 20 5 20 -19z m137 15 c4 -6 -6 -10 -22 -10 -22 0 -25 2
-13 10 19 12 27 12 35 0z m1075 -15 c0 -10 -10 -15 -30 -15 -29 0 -38 9 -23
23 13 13 53 7 53 -8z m-980 -15 c0 -5 -2 -10 -4 -10 -3 0 -8 5 -11 10 -3 6 -1
10 4 10 6 0 11 -4 11 -10z m-867 -6 c7 -7 -30 -44 -44 -44 -19 0 -19 22 0 27
12 3 21 9 21 14 0 10 14 12 23 3z m1137 -3 c0 -5 3 -18 6 -28 6 -16 5 -16 -9
2 -19 23 -21 35 -7 35 6 0 10 -4 10 -9z m344 -18 c8 -19 28 -274 23 -279 -2
-2 -18 2 -35 8 -25 10 -32 19 -33 40 -1 15 -2 34 -3 41 -1 6 6 12 14 12 35 1
42 16 35 73 -8 67 -11 82 -20 105 -4 9 -3 17 3 17 5 0 13 -8 16 -17z m153 2
c3 -9 -2 -22 -13 -30 -17 -12 -20 -11 -27 7 -4 11 -5 24 -1 29 9 14 34 10 41
-6z m-641 -21 c-4 -9 -9 -15 -11 -12 -3 3 -3 13 1 22 4 9 9 15 11 12 3 -3 3
-13 -1 -22z m384 10 c0 -2 -10 -20 -22 -39 -19 -28 -27 -33 -47 -28 -17 4 -22
2 -17 -6 4 -6 0 -14 -11 -18 -46 -17 -56 -63 -13 -63 15 0 20 -7 20 -29 0 -17
5 -33 10 -36 31 -19 -29 -53 -65 -36 -37 17 -55 20 -86 14 -21 -4 -28 -10 -24
-20 4 -12 0 -14 -21 -9 -17 5 -23 3 -19 -4 4 -6 -4 -10 -20 -10 l-26 0 23 41
c13 23 29 44 36 46 8 3 12 26 12 64 0 32 2 59 4 59 2 0 11 3 20 6 13 5 16 -1
16 -30 0 -29 4 -36 19 -36 29 0 51 11 51 25 0 7 16 20 35 29 20 10 33 21 30
26 -3 4 4 6 15 3 12 -3 29 2 40 12 24 22 26 35 5 35 -8 0 -15 4 -15 9 0 4 11
6 25 3 14 -2 25 -6 25 -8z m199 -91 c1 -18 -5 -23 -24 -23 -30 0 -30 6 -7 79
l17 55 7 -44 c3 -25 7 -55 7 -67z m261 81 c0 -8 -4 -14 -9 -14 -11 0 -22 26
-14 34 9 9 23 -3 23 -20z m174 -43 c19 -74 16 -80 -53 -117 -25 -13 -56 -31
-68 -40 -22 -16 -23 -15 -23 8 0 14 9 36 20 48 12 13 39 57 61 98 23 40 42 72
44 70 2 -2 10 -32 19 -67z m-2100 44 c-5 -11 1 -15 20 -15 26 0 66 -34 66 -56
0 -12 -98 -39 -108 -29 -3 3 2 13 11 23 10 10 17 22 17 25 0 10 -48 8 -68 -2
-9 -5 -25 -12 -35 -15 -24 -8 -17 -27 14 -43 13 -7 23 -17 22 -22 -1 -5 8 -12
21 -15 17 -4 23 -13 24 -35 1 -28 -1 -29 -28 -21 -45 13 -52 20 -46 46 7 25
-10 33 -29 15 -6 -5 -30 -11 -54 -15 -44 -7 -44 -7 -38 21 3 16 15 55 27 87
l22 58 42 -6 c77 -13 96 -13 107 1 15 17 20 17 13 -2z m883 -12 c-3 -3 -11 -2
-17 2 -9 6 -9 10 1 16 14 8 27 -7 16 -18z m121 -42 c-10 -14 -14 -27 -9 -30 5
-3 11 -15 14 -26 3 -13 5 -10 6 12 1 37 13 47 47 39 15 -4 24 -14 24 -26 0
-11 5 -20 10 -20 6 0 10 9 10 20 0 12 7 20 16 20 13 0 15 -7 10 -31 -3 -17 -6
-38 -6 -46 0 -10 -6 -12 -20 -8 -16 5 -20 2 -20 -14 0 -17 -6 -21 -36 -21 -29
0 -35 3 -30 16 3 9 3 21 -1 27 -4 7 -9 2 -13 -13 -9 -37 -36 -37 -49 0 -12 35
-24 32 -46 -11 -15 -27 -55 -42 -55 -19 0 6 -7 10 -15 10 -17 0 -21 16 -5 22
5 2 12 22 15 46 5 46 21 75 43 80 6 1 12 -4 12 -12 0 -23 18 -28 55 -16 26 9
35 18 41 43 7 31 8 32 14 7 4 -17 1 -33 -12 -49z m862 47 c0 -16 -3 -19 -11
-11 -6 6 -8 16 -5 22 11 17 16 13 16 -11z m136 7 c10 -26 0 -37 -20 -22 -11 8
-16 19 -12 25 10 16 26 15 32 -3z m-1636 -9 c0 -8 -4 -18 -10 -21 -5 -3 -10 3
-10 14 0 12 5 21 10 21 6 0 10 -6 10 -14z m350 -16 c0 -16 -4 -30 -9 -30 -12
0 -24 37 -16 50 12 20 25 10 25 -20z m130 15 c0 -8 -4 -15 -10 -15 -5 0 -7 7
-4 15 4 8 8 15 10 15 2 0 4 -7 4 -15z m327 -17 c-3 -8 -6 -5 -6 6 -1 11 2 17
5 13 3 -3 4 -12 1 -19z m220 16 c-3 -3 -12 -4 -19 -1 -8 3 -5 6 6 6 11 1 17
-2 13 -5z m-612 -26 c-19 -11 -30 -5 -21 11 4 6 14 7 22 4 15 -5 14 -7 -1 -15z
m525 12 c0 -5 -4 -10 -10 -10 -5 0 -10 5 -10 10 0 6 5 10 10 10 6 0 10 -4 10
-10z m-1033 -22 c-3 -8 -6 -5 -6 6 -1 11 2 17 5 13 3 -3 4 -12 1 -19z m823 12
c0 -5 -9 -10 -20 -10 -11 0 -20 5 -20 10 0 6 9 10 20 10 11 0 20 -4 20 -10z
m257 4 c-3 -3 -12 -4 -19 -1 -8 3 -5 6 6 6 11 1 17 -2 13 -5z m-212 -14 c-3
-5 -12 -7 -20 -3 -21 7 -19 13 6 13 11 0 18 -4 14 -10z m1091 -55 c10 -32 10
-35 -7 -35 -24 0 -28 9 -22 48 6 38 12 35 29 -13z m-1816 14 c0 -5 -4 -9 -10
-9 -5 0 -10 7 -10 16 0 8 5 12 10 9 6 -3 10 -10 10 -16z m398 -18 c5 -54 -5
-80 -28 -74 -11 3 -20 11 -20 18 0 13 -52 29 -82 26 -11 -2 -18 5 -18 16 0 13
14 23 53 35 75 23 91 20 95 -21z m1066 13 c9 -24 7 -72 -3 -79 -5 -3 -11 5
-13 17 -2 13 -11 24 -23 26 -28 5 -39 18 -32 36 8 21 63 21 71 0z m-2308 -9
c4 -8 3 -22 0 -31 -5 -13 -9 -14 -21 -4 -8 7 -15 21 -15 31 0 23 28 25 36 4z
m1906 -5 c22 0 22 1 3 -44 -8 -20 -21 -36 -29 -36 -7 0 -19 -7 -26 -15 -19
-23 -30 -18 -30 13 1 38 22 62 48 55 12 -3 22 -1 22 5 0 5 -9 12 -21 15 -13 3
-18 10 -14 17 5 9 10 9 18 1 6 -6 19 -11 29 -11z m-1275 -32 c-3 -8 -6 -5 -6
6 -1 11 2 17 5 13 3 -3 4 -12 1 -19z m49 -52 c-1 -33 -5 -43 -16 -41 -22 3 -9
75 16 85 0 0 0 -20 0 -44z m1548 32 c13 -41 15 -68 6 -68 -5 0 -10 9 -10 19 0
11 -7 26 -15 34 -8 8 -11 17 -8 21 10 10 23 7 27 -6z m-1584 -8 c0 -5 -2 -10
-4 -10 -3 0 -8 5 -11 10 -3 6 -1 10 4 10 6 0 11 -4 11 -10z m924 -15 c-22 -17
-48 -20 -39 -4 8 12 48 29 54 23 3 -2 -4 -11 -15 -19z m526 -40 c0 -44 -3 -53
-15 -49 -15 6 -22 84 -8 97 16 17 23 3 23 -48z m-2197 35 c10 0 22 -10 27 -22
26 -63 60 -72 60 -17 0 19 5 29 15 29 8 0 15 -7 15 -15 0 -8 6 -24 12 -35 18
-28 -8 -74 -44 -78 -21 -3 -37 10 -87 65 -66 73 -73 89 -38 79 12 -3 30 -6 40
-6z m610 -52 c-2 -5 -8 -8 -14 -8 -11 0 -12 43 -2 54 9 8 22 -34 16 -46z
m1807 36 c0 -8 -5 -12 -10 -9 -6 4 -8 11 -5 16 9 14 15 11 15 -7z m-1725 -34
c-3 -6 -10 -10 -16 -10 -10 0 -12 33 -2 44 9 9 26 -22 18 -34z m430 30 c3 -5
1 -10 -4 -10 -6 0 -11 5 -11 10 0 6 2 10 4 10 3 0 8 -4 11 -10z m-1105 -137
c0 -16 -6 -23 -20 -23 -11 0 -20 4 -20 8 0 5 -9 19 -20 32 -11 13 -20 33 -20
46 0 12 -3 31 -6 41 -4 10 14 -4 40 -32 25 -28 46 -60 46 -72z m1357 101 c-3
-3 -12 -4 -19 -1 -8 3 -5 6 6 6 11 1 17 -2 13 -5z m570 -26 c-3 -7 -5 -2 -5
12 0 14 2 19 5 13 2 -7 2 -19 0 -25z m-2211 -20 c47 -25 78 -58 54 -58 -6 0
-10 5 -10 10 0 6 -5 10 -10 10 -6 0 -8 -12 -5 -27 3 -16 2 -22 -1 -16 -3 7
-31 38 -62 68 -59 57 -54 59 34 13z m2124 9 c0 -7 4 -7 12 1 21 21 35 14 30
-17 l-4 -28 -54 16 c-60 19 -78 31 -45 31 12 0 20 4 17 9 -3 4 6 6 19 3 14 -2
25 -9 25 -15z m500 2 c0 -5 -4 -9 -10 -9 -5 0 -10 7 -10 16 0 8 5 12 10 9 6
-3 10 -10 10 -16z m260 -4 c-13 -14 -30 -25 -37 -25 -8 0 -12 -4 -9 -8 2 -4
-4 -19 -15 -32 -12 -17 -19 -20 -19 -10 0 8 -8 0 -17 -19 -10 -20 -19 -29 -21
-21 -3 8 0 16 7 18 15 5 14 29 -1 36 -14 5 -4 14 71 58 59 33 70 34 41 3z
m-2208 -20 c18 7 30 -16 19 -34 -11 -17 -59 -3 -72 20 -14 28 -1 44 21 24 9
-8 24 -13 32 -10z m-904 -20 c10 -22 9 -25 -8 -25 -15 0 -20 7 -20 25 0 14 4
25 8 25 5 0 14 -11 20 -25z m3304 -7 c-9 -9 -12 -7 -12 12 0 19 3 21 12 12 9
-9 9 -15 0 -24z m-3172 -71 c0 -13 -56 46 -69 73 -8 16 3 9 28 -20 23 -25 41
-49 41 -53z m2597 87 c-3 -3 -12 -4 -19 -1 -8 3 -5 6 6 6 11 1 17 -2 13 -5z
m68 -4 c3 -5 -3 -10 -15 -10 -12 0 -18 5 -15 10 3 6 10 10 15 10 5 0 12 -4 15
-10z m647 -50 c4 0 13 -10 19 -22 l12 -23 -25 23 c-13 12 -28 19 -31 15 -4 -3
-7 1 -7 10 0 8 -3 24 -6 34 -3 10 3 6 12 -9 10 -16 22 -28 26 -28z m-3581 9
c-9 -22 -10 -22 -10 -3 -1 11 2 24 6 27 12 12 14 0 4 -24z m2334 15 c60 -14
60 -14 11 -9 -27 3 -64 5 -82 5 -19 0 -34 5 -34 10 0 13 33 12 105 -6z m652
-26 c-3 -8 -6 -5 -6 6 -1 11 2 17 5 13 3 -3 4 -12 1 -19z m803 18 c0 -3 -4 -8
-10 -11 -5 -3 -10 -1 -10 4 0 6 5 11 10 11 6 0 10 -2 10 -4z m632 -8 c-9 -9
-15 -9 -24 0 -9 9 -7 12 12 12 19 0 21 -3 12 -12z m-1543 -24 c2 -2 2 -7 -2
-10 -9 -9 -87 7 -87 18 0 9 78 2 89 -8z m-345 -3 c3 -4 -6 -6 -19 -3 -14 2
-25 6 -25 8 0 8 39 4 44 -5z m-1699 -11 c-8 -13 -35 -13 -55 0 -11 7 -5 10 23
10 23 0 36 -4 32 -10z m895 -175 c0 -36 -3 -65 -7 -65 -5 0 -8 29 -8 65 -1 36
3 65 7 65 4 0 8 -29 8 -65z m-218 10 c0 -20 -3 -39 -6 -42 -3 -4 -6 15 -6 42
0 27 3 46 6 42 3 -3 6 -22 6 -42z m373 -11 c1 -39 -1 -43 -12 -28 -7 10 -13
22 -13 27 0 8 19 47 23 47 1 0 2 -21 2 -46z m225 36 c0 -5 -2 -10 -4 -10 -3 0
-8 5 -11 10 -3 6 -1 10 4 10 6 0 11 -4 11 -10z m130 -16 c0 -8 -4 -12 -10 -9
-5 3 -10 13 -10 21 0 8 5 12 10 9 6 -3 10 -13 10 -21z m-827 -67 c17 -15 28
-29 25 -32 -6 -6 -108 89 -108 101 0 7 14 -4 83 -69z m955 39 c0 -21 -3 -23
-14 -11 -8 7 -11 21 -8 29 9 22 22 11 22 -18z m69 -93 c-2 -21 -4 -4 -4 37 0
41 2 58 4 38 2 -21 2 -55 0 -75z m-297 64 c0 -5 -4 -5 -10 -2 -5 3 -10 14 -10
23 0 15 2 15 10 2 5 -8 10 -19 10 -23z m-863 -39 c-2 -13 -4 -3 -4 22 0 25 2
35 4 23 2 -13 2 -33 0 -45z m1012 -13 c0 -5 -6 1 -14 15 -8 14 -14 30 -14 35
0 6 6 -1 14 -15 8 -14 14 -29 14 -35z m221 35 c0 -11 -4 -20 -9 -20 -5 0 -7 9
-4 20 3 11 7 20 9 20 2 0 4 -9 4 -20z m-142 -25 c0 -45 -12 -45 -15 0 -2 19 1
35 6 35 5 0 9 -16 9 -35z m-1206 -16 c3 -35 2 -38 -9 -23 -14 19 -17 47 -6 57
10 11 11 9 15 -34z m985 19 c-3 -8 -6 -5 -6 6 -1 11 2 17 5 13 3 -3 4 -12 1
-19z m550 -80 c-2 -13 -4 -3 -4 22 0 25 2 35 4 23 2 -13 2 -33 0 -45z m-1737
6 c0 -37 -17 -28 -22 11 -3 27 -1 32 9 23 7 -6 13 -21 13 -34z m55 -35 c8 -12
6 -12 -8 0 -10 8 -17 26 -16 45 l1 31 7 -31 c4 -17 12 -37 16 -45z m1792 -6
c-2 -16 -4 -3 -4 27 0 30 2 43 4 28 2 -16 2 -40 0 -55z m-170 25 c-3 -8 -6 -5
-6 6 -1 11 2 17 5 13 3 -3 4 -12 1 -19z m-1797 -34 c0 -21 -4 -33 -10 -29 -17
10 -11 65 7 65 2 0 3 -16 3 -36z m1857 -6 c-3 -8 -6 -5 -6 6 -1 11 2 17 5 13
3 -3 4 -12 1 -19z m220 -70 c-2 -13 -4 -3 -4 22 0 25 2 35 4 23 2 -13 2 -33 0
-45z m-110 30 c-3 -8 -6 -5 -6 6 -1 11 2 17 5 13 3 -3 4 -12 1 -19z m-2115
-33 c5 -40 -7 -47 -16 -10 -6 23 -1 45 8 45 2 0 6 -16 8 -35z"/>
<path d="M5120 3796 c0 -2 8 -10 18 -17 15 -13 16 -12 3 4 -13 16 -21 21 -21
13z"/>
<path d="M1772 4118 c4 -27 32 -35 52 -15 12 11 11 15 -5 25 -31 19 -51 15
-47 -10z"/>
<path d="M1715 4120 c-18 -8 -17 -9 8 -9 16 -1 26 3 22 9 -3 6 -7 10 -8 9 -1
0 -11 -4 -22 -9z"/>
<path d="M1707 4073 c-16 -16 -4 -24 30 -21 48 4 57 28 11 28 -19 0 -38 -3
-41 -7z"/>
<path d="M1630 4061 c0 -9 41 -23 48 -16 2 2 1 8 -3 14 -8 13 -45 15 -45 2z"/>
<path d="M1820 4031 c0 -11 -4 -22 -10 -26 -5 -3 -7 -12 -4 -20 4 -8 -1 -17
-9 -21 -9 -3 -18 -13 -22 -22 -5 -13 -3 -13 14 2 21 19 41 14 41 -10 0 -10 12
-14 38 -14 33 0 39 4 49 31 l12 31 -44 -7 c-37 -5 -45 -3 -45 9 0 12 7 14 30
9 26 -5 30 -3 27 13 -5 33 -17 44 -48 44 -22 0 -29 -5 -29 -19z"/>
<path d="M1715 4020 c-3 -5 1 -10 9 -10 8 0 18 5 21 10 3 6 -1 10 -9 10 -8 0
-18 -4 -21 -10z"/>
<path d="M1761 3983 c1 -17 3 -21 6 -10 2 9 9 17 14 17 6 0 7 5 4 10 -12 19
-25 10 -24 -17z"/>
<path d="M1965 3990 c3 -5 10 -10 16 -10 5 0 9 5 9 10 0 6 -7 10 -16 10 -8 0
-12 -4 -9 -10z"/>
<path d="M1640 3916 c0 -9 30 -14 35 -6 4 6 -3 10 -14 10 -12 0 -21 -2 -21 -4z"/>
<path d="M2040 3900 c0 -11 7 -20 15 -20 17 0 18 2 9 24 -9 23 -24 20 -24 -4z"/>
<path d="M1803 3895 c-7 -21 -6 -22 51 -37 39 -10 50 -10 53 0 3 6 18 12 34
12 20 0 28 4 23 11 -4 7 -22 9 -48 6 -27 -4 -47 -1 -60 9 -26 18 -45 18 -53
-1z"/>
<path d="M2303 3844 c30 -16 44 -14 32 5 -3 6 -18 11 -33 11 l-27 -1 28 -15z"/>
<path d="M2060 3822 c0 -39 -20 -43 -21 -4 l-1 27 -13 -30 c-23 -50 -20 -55
38 -55 55 0 95 16 68 27 -8 3 -27 20 -43 37 l-28 30 0 -32z"/>
<path d="M1970 3830 c0 -5 5 -10 11 -10 5 0 7 5 4 10 -3 6 -8 10 -11 10 -2 0
-4 -4 -4 -10z"/>
<path d="M1870 3825 c0 -9 42 -47 47 -42 7 8 -21 47 -34 47 -7 0 -13 -2 -13
-5z"/>
<path d="M2320 3795 c6 -8 9 -19 6 -24 -7 -11 35 -43 50 -40 5 1 22 -3 37 -9
30 -13 57 -16 57 -6 0 3 -5 15 -10 27 -7 14 1 10 22 -13 33 -36 88 -67 88 -51
0 5 -28 34 -62 65 -47 43 -69 56 -92 56 l-31 -1 24 -19 c18 -15 19 -20 7 -20
-9 0 -16 3 -16 8 0 10 -58 42 -77 42 -12 0 -13 -3 -3 -15z"/>
<path d="M2190 3740 c0 -13 19 -28 70 -53 35 -17 50 -33 70 -74 26 -55 37 -63
47 -37 3 9 -3 23 -16 35 -11 11 -28 35 -35 54 -9 22 -24 37 -40 41 -13 3 -32
14 -42 25 -18 20 -54 26 -54 9z"/>
<path d="M2460 3680 c0 -7 7 -10 15 -6 10 3 20 -5 30 -23 8 -16 21 -31 29 -34
24 -9 26 19 3 41 -27 25 -77 39 -77 22z"/>
<path d="M2256 3651 c-4 -6 -4 -11 1 -11 4 0 1 -5 -7 -10 -8 -5 -10 -10 -5
-10 6 0 17 5 25 10 11 7 12 12 4 20 -9 9 -14 9 -18 1z"/>
<path d="M2580 3650 c0 -11 63 -89 73 -89 5 -1 7 15 5 35 -3 32 -8 38 -40 49
-21 7 -38 9 -38 5z"/>
<path d="M2424 3623 c4 -10 1 -13 -13 -8 -30 9 -34 -11 -6 -33 27 -21 34 -45
11 -36 -14 5 -36 -23 -36 -47 0 -8 4 -8 15 1 13 11 18 10 30 -6 19 -26 19 -37
-5 -67 -11 -14 -20 -28 -20 -31 0 -10 40 -6 60 6 14 9 25 9 42 1 31 -15 68
-23 68 -14 0 11 -41 42 -70 53 -54 18 -44 74 15 76 39 2 38 2 26 -30 -13 -35
1 -63 33 -63 14 -1 26 2 26 6 0 4 3 14 6 22 3 8 -5 24 -17 36 -28 26 -21 35
17 20 16 -7 35 -11 43 -10 9 2 12 -4 8 -18 -6 -23 3 -27 21 -9 9 9 15 9 24 0
9 -9 9 -12 0 -12 -19 0 -14 -25 11 -47 20 -20 148 -84 155 -78 7 6 -11 35 -22
35 -6 0 -20 14 -30 31 -30 51 -89 109 -111 109 -11 0 -51 9 -89 19 -65 17
-106 45 -118 81 -2 6 -20 15 -41 20 -32 7 -38 6 -33 -7z"/>
<path d="M2205 3589 c-9 -38 26 -90 55 -82 21 6 27 28 10 38 -5 3 -10 1 -10
-4 0 -6 -7 -11 -15 -11 -22 0 -18 31 5 37 27 7 25 15 -9 35 -30 16 -30 16 -36
-13z"/>
<path d="M2130 3600 c0 -5 5 -10 11 -10 5 0 7 5 4 10 -3 6 -8 10 -11 10 -2 0
-4 -4 -4 -10z"/>
<path d="M2170 3595 c0 -8 5 -15 10 -15 6 0 10 7 10 15 0 8 -4 15 -10 15 -5 0
-10 -7 -10 -15z"/>
<path d="M2300 3455 c0 -8 7 -15 15 -15 8 0 15 7 15 15 0 8 -7 15 -15 15 -8 0
-15 -7 -15 -15z"/>
<path d="M2206 3431 c-4 -7 -5 -15 -2 -18 9 -9 19 4 14 18 -4 11 -6 11 -12 0z"/>
<path d="M2457 3383 c-12 -11 -8 -23 8 -23 8 0 15 7 15 15 0 16 -12 20 -23 8z"/>
<path d="M2690 3385 c0 -18 19 -40 26 -32 4 4 0 15 -9 24 -9 10 -17 13 -17 8z"/>
<path d="M2610 3361 c0 -11 39 -25 47 -18 3 3 2 10 -2 16 -8 13 -45 15 -45 2z"/>
<path d="M2730 3340 c0 -5 -9 -10 -19 -10 -24 0 -35 -28 -19 -49 32 -39 37
-59 27 -95 -10 -35 -29 -50 -29 -23 0 9 -12 14 -29 15 -19 0 -28 -4 -25 -11 7
-19 77 -55 115 -60 19 -2 26 -2 17 0 -40 10 -26 103 16 111 15 3 17 -1 11 -28
-5 -23 -4 -30 4 -26 6 4 11 14 11 22 0 8 9 14 19 14 11 0 26 3 35 6 12 4 16 0
16 -15 0 -12 6 -21 15 -21 8 0 15 -9 15 -21 0 -11 5 -30 11 -41 11 -21 12 -21
25 3 19 35 17 47 -13 85 -16 18 -38 47 -51 64 -13 16 -27 28 -32 25 -4 -3 -10
5 -13 16 -3 12 -10 18 -16 14 -6 -3 -24 3 -40 14 -32 23 -51 27 -51 11z m44
-40 c4 -4 -10 -7 -33 -7 -40 2 -48 7 -34 21 8 8 54 -1 67 -14z"/>
<path d="M2439 3304 c-11 -14 -10 -18 6 -30 19 -14 45 -19 45 -8 0 3 -8 17
-19 30 -17 21 -20 22 -32 8z"/>
<path d="M2572 3290 c8 -13 24 -20 44 -20 21 0 37 -7 47 -22 13 -19 16 -20 16
-6 1 9 -4 29 -11 43 -10 22 -17 25 -60 25 -46 0 -48 -1 -36 -20z"/>
<path d="M2880 3301 c0 -6 4 -13 10 -16 6 -3 7 1 4 9 -7 18 -14 21 -14 7z"/>
<path d="M2245 3280 c4 -6 11 -8 16 -5 14 9 11 15 -7 15 -8 0 -12 -5 -9 -10z"/>
<path d="M2910 3247 c0 -8 7 -17 15 -21 8 -3 15 -2 15 3 0 5 -7 14 -15 21 -12
10 -15 10 -15 -3z"/>
<path d="M2567 3224 c-12 -12 3 -22 23 -17 11 3 17 9 14 14 -6 10 -28 12 -37
3z"/>
<path d="M3998 3813 c7 -3 16 -2 19 1 4 3 -2 6 -13 5 -11 0 -14 -3 -6 -6z"/>
<path d="M1940 3591 c0 -5 9 -19 20 -32 15 -19 19 -21 20 -7 0 9 -7 24 -16 32
-18 18 -24 20 -24 7z"/>
<path d="M3631 3604 c0 -11 3 -14 6 -6 3 7 2 16 -1 19 -3 4 -6 -2 -5 -13z"/>
<path d="M3477 3503 c-4 -3 -7 -11 -7 -17 0 -6 5 -5 12 2 6 6 9 14 7 17 -3 3
-9 2 -12 -2z"/>
<path d="M3520 3460 c-8 -5 -12 -12 -8 -15 9 -9 48 4 48 16 0 12 -21 11 -40
-1z"/>
<path d="M3590 3270 c0 -5 5 -10 10 -10 6 0 10 5 10 10 0 6 -4 10 -10 10 -5 0
-10 -4 -10 -10z"/>
<path d="M1430 3140 c0 -7 24 -20 36 -20 13 0 1 19 -16 23 -11 3 -20 2 -20 -3z"/>
<path d="M1400 3090 c0 -5 5 -10 10 -10 6 0 10 5 10 10 0 6 -4 10 -10 10 -5 0
-10 -4 -10 -10z"/>
<path d="M3150 2689 c0 -5 5 -7 10 -4 6 3 10 8 10 11 0 2 -4 4 -10 4 -5 0 -10
-5 -10 -11z"/>
<path d="M2990 2580 c-24 -8 -24 -8 7 -9 17 -1 35 4 38 9 7 11 -9 11 -45 0z"/>
<path d="M1800 2605 c7 -8 16 -15 21 -15 5 0 9 7 9 15 0 9 -9 15 -21 15 -18 0
-19 -2 -9 -15z"/>
<path d="M1960 2310 c0 -13 7 -20 20 -20 23 0 26 10 8 28 -18 18 -28 15 -28
-8z"/>
<path d="M3093 2180 c0 -30 2 -43 4 -27 2 15 2 39 0 55 -2 15 -4 2 -4 -28z"/>
<path d="M1664 1971 c0 -11 5 -17 13 -14 10 4 11 9 2 19 -15 18 -15 18 -15 -5z"/>
</g>
</svg>
