<?xml version="1.0" standalone="no"?>
<!DOCTYPE svg PUBLIC "-//W3C//DTD SVG 20010904//EN"
 "http://www.w3.org/TR/2001/REC-SVG-20010904/DTD/svg10.dtd">
<svg version="1.0" xmlns="http://www.w3.org/2000/svg"
 width="512.000000pt" height="512.000000pt" viewBox="0 0 512.000000 512.000000"
 preserveAspectRatio="xMidYMid meet">

<g transform="translate(0.000000,512.000000) scale(0.100000,-0.100000)"
fill="#000000" stroke="none">
<path d="M0 4579 c0 -297 4 -538 8 -535 4 2 13 -4 20 -14 9 -16 8 -20 -7 -25
-30 -9 -15 -46 15 -39 29 7 33 -12 4 -21 -11 -3 -20 -13 -20 -20 0 -8 9 -19
20 -25 17 -9 20 -8 20 10 0 27 16 26 24 -2 9 -35 8 -38 -14 -38 -11 0 -20 -4
-20 -8 0 -5 10 -8 22 -8 15 1 24 -6 28 -24 3 -15 14 -26 27 -28 19 -3 21 1 18
31 -4 43 6 47 120 47 122 0 151 -29 34 -33 -35 -2 -70 -6 -76 -10 -7 -5 -13
-4 -13 1 0 5 -11 7 -24 5 -16 -3 -26 -13 -29 -29 -2 -13 0 -24 4 -24 5 0 9
-18 9 -40 0 -28 6 -45 20 -57 24 -21 26 -38 4 -29 -11 4 -14 1 -12 -12 4 -18
26 -23 44 -10 8 6 14 -5 18 -36 6 -39 11 -45 36 -51 19 -4 27 -11 24 -20 -3
-8 -2 -20 2 -27 5 -7 7 -24 5 -37 -2 -16 1 -22 11 -19 7 3 13 15 12 27 0 11 5
21 13 21 7 0 13 5 13 11 0 6 18 28 41 49 36 32 40 40 30 58 -20 38 -7 86 14
52 4 -6 11 -8 16 -5 5 4 9 -1 9 -9 0 -20 20 -32 30 -17 4 7 11 11 16 10 5 -1
17 1 28 6 11 5 49 1 93 -8 52 -11 81 -13 99 -7 28 11 84 13 108 4 27 -11 54
-67 61 -129 15 -146 19 -150 53 -50 42 125 53 259 24 291 -52 57 -122 141
-122 146 0 3 -15 32 -33 65 -18 32 -41 78 -51 103 -10 25 -24 59 -31 75 -42
97 -54 383 -20 493 10 35 15 71 11 86 -13 53 -179 233 -298 324 -26 20 -48 39
-48 43 0 4 12 10 28 13 45 9 526 4 545 -6 16 -8 16 -11 2 -24 -20 -21 -19 -29
8 -42 14 -7 17 -11 7 -12 -11 -1 -10 -3 3 -9 18 -6 17 -8 -3 -31 -12 -14 -19
-20 -16 -13 4 6 2 14 -3 18 -6 3 -7 13 -4 22 4 11 2 14 -8 11 -8 -3 -13 -12
-11 -22 2 -9 -2 -16 -8 -16 -5 0 -10 5 -10 10 0 22 -37 -10 -50 -42 -8 -18
-22 -44 -32 -57 -10 -13 -18 -32 -18 -41 0 -10 -7 -23 -15 -30 -8 -7 -20 -31
-26 -54 -6 -22 -18 -62 -25 -87 -22 -70 -25 -86 -31 -189 -10 -169 21 -317
100 -477 51 -104 90 -157 182 -249 120 -120 117 -119 265 -119 152 0 184 -13
285 -111 l67 -64 75 0 76 0 71 74 c87 90 142 113 240 101 101 -11 208 1 251
29 51 34 175 166 219 234 82 126 80 119 50 219 -23 78 -26 106 -26 243 -1 159
5 194 53 350 l20 65 -21 49 c-26 61 -103 181 -142 220 -20 20 -26 32 -19 39
11 11 387 14 398 4 3 -4 -7 -20 -21 -38 -15 -17 -25 -33 -23 -35 2 -3 111 2
243 10 131 8 240 14 242 12 1 -2 -10 -16 -25 -32 -16 -16 -36 -41 -46 -56 -10
-16 -23 -28 -29 -28 -7 0 -5 7 5 18 32 36 26 45 -30 43 -49 -2 -71 10 -40 22
6 3 2 6 -11 6 -16 1 -21 -3 -16 -11 6 -10 4 -10 -8 0 -13 10 -16 9 -21 -8 -3
-14 -14 -20 -34 -21 -15 0 -48 -3 -73 -5 -25 -2 -81 -5 -124 -7 -78 -4 -79 -4
-108 -43 -31 -42 -68 -118 -68 -141 0 -7 -6 -24 -14 -36 -8 -12 -27 -58 -42
-102 -27 -77 -28 -87 -29 -271 0 -171 2 -194 18 -212 15 -17 24 -18 58 -11 22
5 44 7 48 4 5 -2 43 -5 85 -6 62 -1 76 -4 76 -17 0 -13 2 -12 14 3 12 16 22
17 92 11 43 -3 161 -9 261 -13 l182 -6 12 26 c12 26 9 45 -18 163 -3 11 2 27
9 35 8 8 13 20 10 27 -2 6 2 12 10 12 10 0 13 -23 11 -107 -2 -60 -4 -119 -5
-133 -3 -24 -1 -25 72 -31 41 -4 78 -4 82 0 4 3 26 44 49 91 50 102 92 158
125 166 25 6 64 67 64 99 0 8 5 15 10 15 6 0 10 -4 10 -9 0 -5 7 -16 15 -24
11 -12 12 -20 2 -41 -7 -14 -16 -25 -22 -24 -5 1 -25 -7 -42 -18 -26 -15 -34
-28 -39 -62 -5 -34 -9 -40 -20 -31 -10 8 -15 5 -20 -15 -8 -33 1 -46 34 -46
27 -1 27 -1 7 -18 -11 -9 -25 -29 -32 -43 -10 -22 -8 -29 8 -43 14 -11 18 -23
13 -41 -4 -17 -1 -32 10 -44 16 -17 15 -19 -9 -35 -34 -23 -32 -39 5 -34 33 5
41 -7 10 -15 -16 -4 -20 -14 -20 -46 0 -48 -17 -54 -33 -10 -11 28 -15 30 -47
24 -19 -4 -68 -20 -108 -36 -41 -16 -78 -29 -84 -29 -28 0 -78 -34 -79 -54 0
-18 -2 -19 -11 -5 -10 14 -16 15 -55 3 -56 -17 -55 -9 2 16 l45 19 0 120 c0
105 -2 120 -18 125 -25 7 -150 12 -156 5 -3 -3 -2 -19 2 -35 5 -16 10 -70 11
-120 2 -84 1 -93 -19 -107 -20 -14 -20 -16 -5 -25 23 -12 6 -22 -48 -27 -41
-4 -272 -77 -285 -90 -4 -4 4 -15 18 -24 13 -9 47 -38 75 -65 56 -55 134 -108
146 -100 5 3 9 18 9 34 0 76 45 110 144 110 47 0 56 3 61 21 7 21 7 21 28 1
12 -11 37 -23 54 -27 33 -7 83 -55 83 -81 0 -30 20 -12 21 19 3 83 -3 131 -18
142 -19 14 -9 35 16 35 22 0 31 -26 31 -92 0 -27 2 -48 4 -48 2 0 17 7 32 15
16 8 39 15 51 15 12 0 24 8 28 19 6 20 -3 51 -15 51 -9 0 -6 82 4 98 12 20 44
14 58 -10 7 -13 15 -52 18 -88 5 -62 6 -65 33 -68 30 -4 30 -3 29 120 -1 31 4
48 14 52 8 3 14 19 14 38 l1 33 19 -24 c24 -28 27 -41 35 -143 6 -74 8 -78 31
-78 28 0 27 -9 24 150 l-2 125 21 -19 c18 -16 21 -32 23 -135 l3 -116 157 -3
157 -3 37 33 c53 47 140 168 185 257 21 42 38 68 39 59 0 -24 17 -23 25 2 10
33 28 24 21 -10 -3 -19 -2 -29 4 -25 6 3 10 13 10 21 0 8 4 13 9 10 5 -3 7
-24 4 -46 -5 -33 -3 -40 11 -40 9 0 16 5 16 10 0 6 5 10 11 10 6 0 33 16 58
35 26 19 84 49 129 66 45 18 82 36 82 41 0 5 -17 9 -37 8 -215 -2 -235 -1
-228 9 11 18 -21 12 -48 -9 -14 -11 -30 -20 -35 -20 -6 0 -13 -6 -15 -12 -3
-7 -5 9 -4 36 l2 50 -43 3 c-24 1 -52 -2 -63 -7 -23 -13 -25 -4 -3 18 11 10
13 17 5 20 -6 2 -18 -4 -27 -13 -9 -9 -19 -13 -23 -9 -3 3 4 13 17 21 12 9 22
20 22 25 0 6 -11 3 -25 -6 -14 -9 -29 -14 -34 -12 -5 3 -20 -3 -34 -14 -32
-25 -44 -25 -52 0 -4 11 -11 17 -17 14 -6 -4 -25 -10 -43 -14 -28 -6 -32 -5
-28 8 5 12 0 14 -31 8 -24 -5 -36 -4 -32 3 10 16 142 62 219 75 40 7 83 19 96
25 15 8 21 9 17 2 -4 -6 0 -11 10 -11 25 0 84 23 84 32 0 11 -15 10 -44 -3
-19 -9 -29 -9 -39 -1 -7 6 -24 8 -38 5 -21 -6 -23 -5 -10 10 7 9 24 17 37 17
17 0 24 6 24 20 0 11 -7 20 -15 20 -8 0 -15 5 -15 10 0 42 209 -38 290 -111
86 -77 141 -134 161 -165 27 -44 39 -35 39 26 0 44 -2 48 -22 42 -14 -3 -19
-1 -14 6 3 6 2 13 -4 17 -5 3 -10 10 -10 16 0 5 8 4 19 -2 19 -13 51 -6 51 9
0 5 -14 12 -30 16 -18 3 -30 12 -30 21 0 16 5 19 53 29 15 4 27 13 27 21 0 8
5 15 12 15 6 0 9 3 5 6 -3 3 3 15 13 27 11 11 17 23 15 27 -2 4 11 22 30 40
l35 34 0 208 c0 176 -2 210 -15 214 -19 8 -19 33 0 40 12 5 15 27 15 115 l0
109 -2560 0 -2560 0 0 -541z m1140 519 c72 4 83 -1 53 -24 -10 -7 -14 -16 -9
-21 5 -4 11 -2 13 5 7 19 26 14 46 -13 17 -23 17 -25 1 -25 -16 0 -16 -1 0
-19 24 -26 5 -76 -26 -68 -12 3 -29 2 -38 -3 -13 -7 -24 1 -52 38 -20 26 -42
61 -49 77 -8 17 -18 33 -23 36 -5 4 -5 13 0 20 4 7 9 9 11 4 2 -6 34 -9 73 -7z
m3749 3 c11 -7 10 -15 -5 -42 -11 -19 -22 -36 -25 -39 -3 -3 -22 -34 -42 -70
-76 -139 -115 -302 -118 -492 -1 -133 -9 -144 -54 -76 -17 26 -29 58 -31 87
-13 193 -79 365 -207 533 -39 51 -64 93 -59 97 16 10 525 11 541 2z m-3484
-17 c32 -21 23 -34 -21 -34 -26 0 -34 4 -34 18 0 35 18 40 55 16z m2619 -104
c0 -63 -2 -149 -4 -190 -3 -41 -1 -81 3 -87 5 -7 3 -38 -2 -70 -6 -31 -11 -73
-12 -92 l-1 -36 -10 35 c-7 24 -6 109 2 273 7 135 9 242 4 246 -5 5 -53 4
-107 -2 -54 -5 -99 -8 -101 -6 -2 2 -7 14 -11 27 l-7 23 124 -3 123 -3 -1
-115z m-2397 69 c17 -17 -12 -71 -35 -67 -22 4 -41 36 -34 60 5 21 51 25 69 7z
m1773 -7 c0 -11 -9 -27 -21 -38 -20 -18 -20 -18 -15 9 2 15 7 31 11 37 10 16
25 11 25 -8z m125 -12 c3 -11 11 -19 18 -17 6 1 13 -6 15 -15 2 -13 -3 -18
-21 -18 -25 0 -37 16 -37 51 0 25 17 25 25 -1z m-195 -30 c-24 -15 -36 -11
-14 4 10 8 21 12 24 10 2 -3 -2 -9 -10 -14z m-1892 -46 c-8 -8 -47 9 -52 23
-11 28 4 32 30 6 14 -14 24 -27 22 -29z m-367 -38 c-7 -8 -18 -37 -26 -64 -12
-46 -11 -49 5 -45 10 3 36 -5 59 -16 41 -21 41 -21 21 -41 -23 -23 -34 -26
-27 -6 3 9 -4 21 -19 30 -24 16 -24 16 -24 -16 0 -23 10 -42 33 -66 30 -32 31
-34 13 -44 -11 -6 -35 -26 -55 -43 -29 -27 -33 -35 -23 -48 17 -21 4 -49 -22
-45 -11 1 -27 -1 -33 -5 -8 -5 -13 -3 -13 6 0 16 -38 34 -88 41 -19 2 -36 7
-39 10 -8 8 8 27 18 20 5 -3 16 0 24 6 8 7 20 8 27 4 17 -11 -21 48 -41 63
-14 10 -13 13 5 30 29 25 47 70 31 77 -7 2 -4 5 6 5 17 1 17 3 3 23 -20 28
-20 42 -1 34 9 -3 15 0 15 10 0 8 -6 17 -14 20 -11 4 -9 11 9 30 26 28 33 30
31 7 0 -10 7 -19 17 -21 9 -2 17 1 17 7 0 6 -4 11 -10 11 -18 0 -10 22 15 42
14 11 23 23 20 28 -3 4 -2 15 1 24 5 13 13 10 42 -18 29 -29 33 -37 23 -50z
m269 29 c0 -8 -7 -15 -15 -15 -8 0 -15 7 -15 15 0 8 7 15 15 15 8 0 15 -7 15
-15z m2216 -15 c8 0 14 -5 14 -11 0 -19 -35 -4 -37 16 -2 11 0 14 3 8 3 -7 12
-13 20 -13z m-2111 0 c12 19 25 10 25 -16 0 -21 -4 -25 -19 -21 -10 2 -25 1
-33 -4 -9 -5 -18 -1 -26 12 -10 16 -10 19 3 19 8 0 15 5 15 11 0 8 4 8 14 0
10 -8 16 -9 21 -1z m1995 -20 c0 -16 4 -30 8 -30 5 0 9 -8 9 -17 -1 -52 4 -73
17 -73 7 0 16 10 19 21 4 14 11 20 21 16 8 -3 17 1 21 10 4 13 8 14 17 5 18
-18 28 -14 28 9 0 11 5 17 10 14 6 -3 10 -23 10 -43 0 -27 -3 -33 -10 -22 -5
8 -12 11 -16 7 -4 -4 -2 -13 4 -19 21 -21 14 -39 -13 -32 -22 5 -25 3 -25 -19
0 -16 -7 -26 -21 -30 -17 -5 -19 -10 -13 -41 4 -24 2 -36 -5 -36 -6 0 -11 9
-11 19 0 25 -20 38 -31 20 -6 -10 -9 -5 -9 17 0 16 4 34 9 40 5 5 12 20 15 34
6 22 6 23 -5 6 -9 -15 -13 -16 -21 -5 -5 9 -8 -14 -8 -66 0 -69 -3 -127 -9
-145 -1 -3 -8 4 -17 15 -13 18 -14 12 -8 -63 6 -74 5 -82 -10 -76 -11 4 -16
18 -16 44 0 49 -16 60 -25 18 -4 -17 -16 -45 -26 -62 -30 -51 -49 -97 -49
-122 0 -13 -14 -44 -32 -70 -27 -40 -33 -44 -38 -29 -8 23 47 165 85 221 20
29 25 49 25 98 0 72 26 226 40 240 6 6 10 22 10 38 0 15 6 31 13 35 27 17 39
41 29 60 -12 22 -5 43 14 43 9 0 14 -11 14 -30z m52 -2 c-7 -7 -12 -8 -12 -2
0 6 3 14 7 17 3 4 9 5 12 2 2 -3 -1 -11 -7 -17z m-216 -15 c-10 -10 -19 5 -10
18 6 11 8 11 12 0 2 -7 1 -15 -2 -18z m-93 -2 c-7 -26 -43 -60 -43 -41 0 11
37 60 46 60 1 0 0 -9 -3 -19z m167 -6 c0 -25 -47 -78 -62 -69 -12 8 11 34 28
34 8 0 17 14 21 30 7 36 13 39 13 5z m-2255 -25 c3 -5 2 -10 -4 -10 -5 0 -13
5 -16 10 -3 6 -2 10 4 10 5 0 13 -4 16 -10z m400 -23 c14 -31 7 -70 -11 -63
-8 3 -14 -1 -14 -8 0 -8 10 -16 22 -19 21 -6 21 -7 3 -27 -10 -11 -29 -20 -42
-20 -25 0 -29 10 -13 26 14 14 21 54 9 54 -5 0 -9 15 -9 33 0 56 34 71 55 24z
m1779 -12 c4 -14 14 -25 22 -25 13 0 14 -3 5 -14 -7 -8 -19 -12 -29 -10 -20 6
-68 -78 -80 -139 -4 -21 -12 -37 -17 -35 -6 2 -9 10 -7 18 2 8 7 36 11 62 4
27 17 58 29 71 12 13 22 34 22 48 0 24 16 49 31 49 4 0 10 -11 13 -25z m362
-43 c-12 -11 -18 7 -10 30 l8 23 4 -23 c2 -13 1 -26 -2 -30z m-2316 24 c0 -3
-4 -8 -10 -11 -5 -3 -10 -1 -10 4 0 6 5 11 10 11 6 0 10 -2 10 -4z m110 -51
c0 -2 -5 -14 -11 -27 -8 -20 -17 -23 -62 -23 -46 0 -52 2 -55 23 -4 27 22 30
55 7 21 -14 23 -14 35 5 11 17 38 28 38 15z m-280 -55 c0 -11 -4 -20 -9 -20
-11 0 -22 26 -14 34 12 12 23 5 23 -14z m1145 -1 c14 -14 -35 -10 -85 6 l-45
14 60 -6 c33 -3 64 -9 70 -14z m-895 -29 c0 -5 -10 -10 -22 -10 -19 0 -20 2
-8 10 19 13 30 13 30 0z m892 -11 c29 -6 59 -12 65 -14 19 -6 4 -35 -18 -35
-10 0 -19 -6 -19 -13 0 -22 -50 -67 -75 -67 -23 0 -55 23 -55 39 0 5 -42 14
-92 21 -107 14 -222 38 -193 40 11 1 56 1 100 1 66 -1 84 2 105 19 29 23 98
26 182 9z m-1102 -8 c0 -12 -29 -23 -41 -15 -5 3 -7 10 -4 15 8 12 45 12 45 0z
m2367 -75 c-14 -15 -27 -36 -30 -47 -4 -16 -2 -19 15 -13 20 6 20 6 2 -25 -30
-51 -63 -88 -64 -71 0 8 14 30 31 48 l31 33 -26 -7 c-22 -5 -26 -3 -26 15 0
12 9 30 20 41 11 11 20 27 20 36 0 9 10 28 23 43 l22 28 3 -28 c2 -18 -5 -36
-21 -53z m-2217 40 c0 -3 -4 -8 -10 -11 -5 -3 -10 -1 -10 4 0 6 5 11 10 11 6
0 10 -2 10 -4z m-907 -62 c-24 -17 -33 -6 -26 30 l6 29 19 -23 c17 -21 17 -23
1 -36z m362 46 c3 -5 0 -10 -9 -10 -8 0 -16 -6 -19 -12 -2 -7 -8 -10 -12 -6
-7 7 14 37 27 38 4 0 10 -4 13 -10z m435 -35 c0 -14 -4 -25 -10 -25 -5 0 -10
4 -10 9 0 5 -3 16 -6 25 -4 11 -1 16 10 16 10 0 16 -9 16 -25z m229 -34 c6
-10 7 -21 4 -25 -4 -4 10 1 31 9 21 9 39 15 40 13 0 -2 -2 -34 -5 -73 l-5 -70
-2 58 c-2 57 -2 57 -29 51 -16 -4 -36 -11 -46 -16 -14 -7 -25 -4 -43 13 -22
21 -23 24 -7 41 21 23 50 23 62 -1z m-1136 -21 c-7 -25 -23 -37 -23 -16 0 23
11 46 20 41 5 -3 6 -14 3 -25z m132 0 c5 -16 12 -19 28 -14 20 6 20 5 8 -10
-8 -9 -19 -15 -25 -13 -6 2 -17 -2 -24 -10 -14 -13 -52 -18 -52 -6 0 11 44 73
52 73 4 0 10 -9 13 -20z m860 -50 c-2 -33 -7 -64 -10 -71 -4 -6 -2 -16 4 -22
14 -14 14 -67 0 -67 -5 0 -8 4 -5 8 2 4 -4 28 -15 52 -13 28 -16 46 -10 48 6
2 11 16 11 32 0 43 12 90 21 84 4 -2 6 -31 4 -64z m-117 43 c5 -18 -23 -16
-39 3 -11 14 -10 15 11 12 13 -1 25 -9 28 -15z m-1088 -46 c0 -16 -18 3 -23
25 -6 22 -5 22 8 4 8 -11 15 -24 15 -29z m3046 -3 c-8 -21 -15 -31 -15 -22 -1
21 18 72 24 66 3 -3 -1 -22 -9 -44z m306 -3 c-19 -34 -27 -33 -18 4 4 14 13
25 21 25 12 0 11 -5 -3 -29z m-1805 3 c10 -26 -13 -39 -44 -25 -27 12 -27 13
-8 27 25 18 44 18 52 -2z m-1159 -18 c3 -11 -1 -17 -9 -14 -7 2 -13 12 -15 22
-3 23 20 15 24 -8z m4450 -6 c-22 -30 -38 -39 -38 -20 0 11 40 50 52 50 5 0
-1 -13 -14 -30z m-923 -45 c0 -18 -8 -42 -17 -52 -17 -20 -30 -110 -17 -119 5
-3 9 -15 9 -27 -1 -47 -49 88 -49 138 -1 58 9 78 32 69 11 -4 19 0 23 10 11
27 21 18 19 -19z m-2337 -17 c-1 -21 -7 -27 -31 -32 -50 -10 -97 -7 -97 7 0 6
-3 21 -6 32 -5 19 0 20 65 20 69 0 70 0 69 -27z m85 19 c4 3 7 2 7 -4 0 -17
-13 -23 -27 -12 -7 6 -13 16 -13 21 0 7 5 6 13 -1 8 -6 17 -8 20 -4z m3207 4
c0 -14 -28 -33 -39 -27 -16 10 -1 36 20 36 10 0 19 -4 19 -9z m-4500 -52 c7
-12 18 -18 26 -15 8 3 14 -1 14 -9 0 -8 -7 -15 -16 -15 -9 0 -23 -8 -30 -17
-12 -17 -13 -16 -14 6 0 13 -3 21 -7 17 -5 -4 -8 -11 -8 -16 0 -5 -11 -18 -24
-29 -17 -15 -20 -21 -9 -21 21 0 47 -30 27 -30 -8 -1 -32 -9 -54 -20 -49 -23
-71 -25 -79 -5 -3 9 0 15 9 15 8 0 15 7 15 16 0 11 6 14 20 9 14 -5 20 -2 20
9 0 9 -7 16 -16 16 -11 0 -14 5 -10 16 3 9 6 21 6 27 0 7 7 4 14 -6 17 -22 24
-12 21 31 -1 26 2 32 18 32 15 0 18 -5 14 -22 -5 -21 -4 -20 14 5 25 32 35 34
49 6z m4530 10 c0 -10 -48 -24 -56 -16 -11 11 4 22 30 23 14 1 26 -2 26 -7z
m-3240 -34 c0 -8 -4 -15 -9 -15 -5 0 -11 7 -15 15 -3 9 0 15 9 15 8 0 15 -7
15 -15z m3230 -25 c0 -8 -52 -21 -59 -14 -3 2 4 10 14 18 19 14 45 11 45 -4z
m-2920 -10 c0 -5 -4 -10 -10 -10 -5 0 -10 5 -10 10 0 6 5 10 10 10 6 0 10 -4
10 -10z m-495 -10 c3 -5 -1 -10 -9 -10 -9 0 -16 5 -16 10 0 6 4 10 9 10 6 0
13 -4 16 -10z m42 4 c-3 -3 -12 -4 -19 -1 -8 3 -5 6 6 6 11 1 17 -2 13 -5z
m566 -44 c29 0 75 -6 102 -13 l50 -13 -49 -7 c-70 -10 -113 -9 -173 5 -58 14
-64 21 -30 39 12 7 27 19 32 28 8 13 11 11 13 -11 3 -27 6 -28 55 -28z m-1693
30 c0 -5 -10 -10 -22 -9 -22 0 -22 1 -3 9 11 5 21 9 23 9 1 1 2 -3 2 -9z m90
1 c0 -5 -6 -14 -14 -20 -11 -9 -16 -9 -21 0 -4 6 -1 15 6 20 18 11 29 11 29 0z
m-432 -18 c-2 -9 21 -60 98 -217 30 -60 52 -111 50 -114 -4 -3 -86 139 -147
256 -27 53 -30 65 -18 73 17 11 20 11 17 2z m1470 -31 c12 -1 22 -6 22 -12 0
-6 -33 -10 -79 -10 -44 0 -83 -4 -86 -10 -8 -13 -35 -13 -35 1 0 6 9 13 20 16
11 3 18 8 16 12 -4 5 85 7 142 3z m-1088 -12 c0 -5 -11 -10 -25 -10 -14 0 -25
5 -25 10 0 6 11 10 25 10 14 0 25 -4 25 -10z m820 -20 c26 0 50 -16 50 -33 0
-5 -7 -7 -15 -3 -8 3 -15 1 -15 -4 0 -6 -8 -10 -17 -10 -15 0 -16 2 -3 10 12
7 7 12 -23 25 -22 9 -35 20 -31 26 4 8 10 7 17 0 6 -6 23 -11 37 -11z m-745
-10 c10 -16 -37 -68 -60 -67 -12 1 -24 -7 -29 -20 -6 -12 -18 -24 -28 -26 -18
-5 -68 13 -68 23 0 3 20 14 44 24 27 11 46 26 50 39 4 16 10 19 35 14 23 -5
31 -3 31 8 0 17 16 20 25 5z m-219 -37 c-10 -10 -19 5 -10 18 6 11 8 11 12 0
2 -7 1 -15 -2 -18z m1177 20 c-7 -2 -19 -2 -25 0 -7 3 -2 5 12 5 14 0 19 -2
13 -5z m227 -33 c0 -11 -4 -20 -10 -20 -5 0 -10 2 -10 4 0 2 -3 11 -6 20 -4
11 -1 16 10 16 9 0 16 -8 16 -20z m-467 -122 c3 -21 2 -38 -4 -38 -5 0 -9 15
-9 34 0 19 -4 38 -10 41 -5 3 -10 11 -10 18 0 26 28 -20 33 -55z m-910 27 c7
3 21 -2 32 -11 17 -13 18 -16 5 -24 -10 -7 -16 -5 -18 4 -2 8 -12 16 -23 19
-10 3 -19 11 -18 19 0 9 2 9 5 1 3 -7 11 -10 17 -8z m862 6 c3 -5 1 -12 -5
-16 -5 -3 -10 1 -10 9 0 18 6 21 15 7z m3385 -1 c0 -5 -5 -10 -11 -10 -5 0 -7
5 -4 10 3 6 8 10 11 10 2 0 4 -4 4 -10z m-812 -16 c18 -3 18 -3 25 -42 4 -21
3 -31 -3 -27 -6 3 -10 15 -10 26 0 13 -10 24 -30 30 -16 6 -27 15 -24 20 3 5
11 6 17 2 7 -4 18 -8 25 -9z m-3088 -4 c-19 -13 -30 -13 -30 0 0 6 10 10 23
10 18 0 19 -2 7 -10z m-265 -40 c3 -5 1 -10 -4 -10 -6 0 -11 5 -11 10 0 6 2
10 4 10 3 0 8 -4 11 -10z m3561 -6 c29 -20 54 -63 54 -96 0 -21 -2 -20 -20 10
-33 54 -46 42 -42 -40 3 -56 1 -70 -8 -62 -7 7 -12 44 -12 94 0 73 -2 83 -19
87 -10 3 -19 9 -19 14 0 15 39 10 66 -7z m-3440 -44 c8 0 14 -4 14 -9 0 -8
-103 -21 -177 -21 -24 0 -43 5 -43 10 0 12 28 14 123 10 52 -2 66 1 64 11 -2
8 -2 11 0 7 3 -5 11 -8 19 -8z m50 -42 c-43 -44 -81 -76 -71 -59 4 8 2 16 -5
21 -8 5 -1 12 24 21 20 7 36 19 36 26 0 6 8 16 17 22 32 17 31 2 -1 -31z m684
22 c0 -5 -4 -10 -10 -10 -5 0 -10 5 -10 10 0 6 5 10 10 10 6 0 10 -4 10 -10z
m-793 -46 c-3 -3 -12 -4 -19 -1 -8 3 -5 6 6 6 11 1 17 -2 13 -5z m3062 -11 c0
-10 -4 -27 -9 -38 -7 -16 -9 -13 -9 18 -1 20 4 37 9 37 6 0 10 -8 9 -17z
m-3225 -28 c-10 -8 -30 -14 -44 -14 -24 0 -24 0 -6 14 11 8 31 15 45 15 24 0
24 -1 5 -15z m261 -14 c-3 -6 -16 -16 -28 -22 -21 -11 -21 -10 2 15 23 25 40
29 26 7z m-346 -30 c11 -7 10 -11 -5 -20 -14 -8 -15 -10 -4 -11 8 0 28 9 44
20 30 19 30 19 44 -1 14 -20 9 -39 -10 -39 -6 0 -8 9 -5 20 7 26 -1 25 -44 -4
-32 -22 -62 -30 -96 -27 -23 2 -13 26 20 49 36 25 37 25 56 13z m2929 -16
c-23 -13 -26 -19 -21 -50 4 -27 2 -35 -10 -35 -8 0 -18 12 -22 27 -3 15 -12
31 -18 35 -12 7 48 36 78 37 17 0 16 -2 -7 -14z m-2433 -14 c3 -5 1 -12 -5
-16 -5 -3 -10 1 -10 9 0 18 6 21 15 7z m2185 -81 c0 -5 -5 -10 -11 -10 -5 0
-7 5 -4 10 3 6 8 10 11 10 2 0 4 -4 4 -10z"/>
<path d="M954 4775 c-8 -19 8 -51 22 -48 14 4 13 42 -2 54 -11 9 -15 7 -20 -6z"/>
<path d="M2853 4983 c9 -2 23 -2 30 0 6 3 -1 5 -18 5 -16 0 -22 -2 -12 -5z"/>
<path d="M5105 4370 c3 -5 8 -10 11 -10 2 0 4 5 4 10 0 6 -5 10 -11 10 -5 0
-7 -4 -4 -10z"/>
<path d="M5080 4325 c-8 -9 -8 -15 -2 -15 6 0 17 -3 26 -6 12 -4 16 0 16 15 0
24 -22 28 -40 6z"/>
<path d="M5070 4265 c-11 -13 -8 -15 19 -15 21 0 31 5 31 15 0 8 -8 15 -19 15
-10 0 -24 -7 -31 -15z"/>
<path d="M3709 4265 c-4 -5 -10 -67 -14 -136 -7 -115 -6 -127 10 -133 10 -3
19 -5 20 -4 5 9 -11 281 -16 273z"/>
<path d="M4635 4250 c-8 -13 15 -13 35 0 12 8 11 10 -7 10 -12 0 -25 -4 -28
-10z"/>
<path d="M4650 4145 c-8 -9 -8 -15 -2 -15 12 0 26 19 19 26 -2 2 -10 -2 -17
-11z"/>
<path d="M2630 4107 c0 -30 33 -121 71 -196 37 -74 59 -98 79 -86 4 3 11 62
15 131 9 157 26 151 27 -10 2 -130 -5 -120 90 -132 44 -5 59 -3 62 7 3 8 7 68
10 134 3 66 5 124 5 130 1 5 7 3 13 -3 8 -8 15 -58 18 -140 l5 -127 50 -7 c28
-3 65 -7 83 -7 l32 -1 0 139 0 139 -42 6 c-53 7 -175 16 -288 21 -47 2 -118 6
-157 10 -58 5 -73 3 -73 -8z"/>
<path d="M3448 3962 c2 -59 6 -109 7 -111 7 -7 59 16 66 30 4 8 20 45 36 83
15 39 29 73 31 77 3 8 -16 12 -103 23 l-40 6 3 -108z"/>
<path d="M4937 3990 c-15 -17 -27 -35 -27 -38 0 -4 -5 -36 -10 -72 -11 -77 4
-188 28 -207 26 -21 64 -15 88 12 l21 25 26 -24 c51 -47 57 -43 57 39 0 65 -3
77 -26 105 -15 17 -32 29 -39 26 -8 -3 -18 9 -26 27 -7 18 -19 36 -26 40 -7 4
-13 20 -13 36 0 15 -6 35 -13 45 -13 17 -15 16 -40 -14z m-7 -173 c0 -5 -4 -5
-10 -2 -5 3 -10 14 -10 23 0 15 2 15 10 2 5 -8 10 -19 10 -23z"/>
<path d="M2 3925 c0 -16 2 -22 5 -12 2 9 2 23 0 30 -3 6 -5 -1 -5 -18z"/>
<path d="M5040 3908 c0 -7 5 -20 10 -28 8 -12 10 -11 10 7 0 12 -4 25 -10 28
-5 3 -10 0 -10 -7z"/>
<path d="M0 3855 c0 -32 15 -46 32 -29 6 5 -20 64 -28 64 -2 0 -4 -16 -4 -35z"/>
<path d="M4726 3881 c-4 -5 -3 -17 0 -26 5 -13 8 -14 15 -3 5 7 9 19 9 26 0
14 -16 16 -24 3z"/>
<path d="M5111 3854 c0 -11 3 -14 6 -6 3 7 2 16 -1 19 -3 4 -6 -2 -5 -13z"/>
<path d="M0 3757 c0 -37 3 -43 22 -44 29 -3 48 14 48 43 0 26 -3 28 -42 38
-27 6 -28 5 -28 -37z"/>
<path d="M90 3776 c0 -1 5 -17 11 -34 9 -27 14 -30 31 -21 19 10 22 51 3 48
-5 0 -9 -5 -7 -10 1 -5 -2 -9 -8 -9 -5 0 -10 7 -10 15 0 8 -4 15 -10 15 -5 0
-10 -2 -10 -4z"/>
<path d="M4751 3767 c-6 -8 -8 -17 -5 -20 7 -7 44 14 44 25 0 13 -27 9 -39 -5z"/>
<path d="M4691 3733 c-9 -16 -12 -16 -21 -3 -7 11 -10 4 -10 -29 l0 -44 35 39
c19 21 34 42 35 47 0 14 -29 7 -39 -10z"/>
<path d="M3812 3720 c0 -14 2 -19 5 -12 2 6 2 18 0 25 -3 6 -5 1 -5 -13z"/>
<path d="M4743 3709 c-30 -19 -46 -59 -24 -59 11 0 61 58 61 71 0 12 0 12 -37
-12z"/>
<path d="M0 3684 c0 -32 20 -54 50 -54 19 0 30 5 30 14 0 8 3 22 7 31 5 14 2
16 -15 11 -11 -4 -23 -2 -27 4 -10 16 -45 12 -45 -6z"/>
<path d="M105 3679 c-8 -12 6 -39 21 -39 11 0 41 38 32 41 -18 5 -50 4 -53 -2z"/>
<path d="M12 3588 c3 -30 6 -33 39 -36 33 -3 37 -1 37 21 0 18 -9 27 -32 35
-46 17 -48 16 -44 -20z"/>
<path d="M705 3600 c-3 -5 -2 -10 4 -10 5 0 13 5 16 10 3 6 2 10 -4 10 -5 0
-13 -4 -16 -10z"/>
<path d="M2165 3600 c-3 -5 -1 -10 4 -10 6 0 11 5 11 10 0 6 -2 10 -4 10 -3 0
-8 -4 -11 -10z"/>
<path d="M560 3581 c-109 -35 -183 -129 -231 -293 -16 -55 -22 -112 -26 -228
-6 -182 5 -288 45 -403 l27 -82 118 -3 117 -3 0 435 c0 239 3 442 6 450 10 25
41 38 63 27 23 -13 55 -87 71 -163 6 -31 17 -61 25 -68 21 -17 52 -20 71 -6
16 13 17 23 5 167 -7 84 -17 159 -23 166 -16 19 -56 16 -75 -7 -21 -24 -41
-25 -70 -5 -26 18 -90 27 -123 16z"/>
<path d="M1220 3576 c-69 -19 -104 -41 -150 -93 -96 -109 -139 -246 -147 -463
-6 -167 15 -297 64 -398 23 -47 32 -56 51 -54 12 2 22 -1 22 -7 0 -6 -7 -8
-15 -5 -29 12 -15 -24 30 -73 35 -40 57 -54 110 -71 82 -28 128 -28 210 0 54
17 75 31 115 75 30 32 47 59 43 68 -3 9 1 15 9 15 17 0 50 77 79 185 30 113
31 343 1 462 -51 202 -140 319 -271 357 -63 19 -89 19 -151 2z m118 -94 c9
-12 12 -121 12 -464 0 -392 2 -448 15 -448 8 0 15 -4 15 -10 0 -5 -5 -9 -11
-7 -6 1 -16 -13 -22 -32 -7 -19 -19 -39 -28 -44 -27 -17 -65 0 -80 35 -7 18
-18 37 -23 41 -8 6 -7 10 2 14 9 4 12 103 12 449 l0 445 25 25 c27 27 59 26
83 -4z m-153 -917 c-26 -9 -105 -12 -105 -4 0 5 26 9 58 8 31 0 53 -2 47 -4z
m348 -6 c-8 -8 -16 -8 -30 0 -16 9 -14 10 12 11 21 0 26 -3 18 -11z"/>
<path d="M1266 3455 c-3 -9 -6 -24 -6 -33 1 -15 2 -15 11 1 5 9 19 17 30 17
27 0 19 24 -8 28 -12 2 -23 -4 -27 -13z"/>
<path d="M1991 3573 c-96 -34 -185 -170 -218 -331 -19 -98 -22 -360 -4 -462 7
-41 25 -105 39 -142 29 -76 16 -70 152 -69 63 0 70 -2 45 -10 -16 -5 -57 -8
-89 -7 -40 2 -61 -1 -63 -9 -3 -7 17 -35 42 -62 113 -121 293 -117 375 7 17
25 29 50 27 55 -1 5 -27 10 -57 10 -46 1 -56 -2 -65 -20 -19 -37 -37 -53 -59
-53 -28 0 -46 18 -46 46 0 13 -5 26 -10 29 -7 4 -7 12 0 24 6 11 9 186 10 441
0 364 2 426 15 446 19 30 30 30 59 1 22 -22 40 -67 67 -170 13 -52 33 -67 75
-59 30 5 31 18 18 190 -11 147 -16 161 -55 162 -9 0 -28 -9 -43 -21 l-27 -21
-49 21 c-57 24 -79 25 -139 4z"/>
<path d="M2680 3576 c-76 -22 -93 -32 -143 -82 -58 -58 -109 -159 -138 -269
-17 -65 -21 -110 -21 -240 0 -170 14 -251 63 -364 l21 -51 112 0 112 0 2 443
c2 243 5 450 8 460 3 10 17 23 32 28 21 8 31 6 51 -9 l26 -19 5 -453 5 -453
105 2 c58 1 108 6 113 10 22 22 67 187 79 289 30 278 -48 552 -190 659 -67 51
-168 71 -242 49z"/>
<path d="M3197 3553 c-4 -3 -7 -21 -7 -39 0 -25 7 -38 30 -54 l30 -21 0 -422
c0 -232 4 -428 9 -435 5 -9 25 -12 57 -10 l49 3 2 230 c1 127 3 235 3 240 2
19 25 -29 202 -428 l22 -48 95 3 96 3 3 437 2 437 30 21 c29 21 36 42 24 74
-5 13 -25 16 -120 16 l-114 0 0 -32 c0 -23 9 -40 35 -64 l35 -32 0 -200 c0
-111 -3 -203 -8 -206 -7 -4 -59 107 -188 402 l-58 132 -112 0 c-61 0 -114 -3
-117 -7z"/>
<path d="M3890 3524 c0 -27 7 -43 30 -64 l30 -28 0 -431 0 -431 135 0 135 0 0
444 c0 418 1 446 18 458 27 19 33 34 26 63 l-6 25 -184 0 -184 0 0 -36z"/>
<path d="M4317 3553 c-15 -14 -6 -53 18 -81 l25 -30 0 -436 0 -436 44 0 c31 0
46 5 50 16 3 9 6 202 6 431 l0 415 30 28 c29 27 36 52 24 84 -5 13 -23 16 -98
16 -51 0 -96 -3 -99 -7z"/>
<path d="M4586 3538 c-3 -13 -7 -68 -11 -124 -6 -107 -1 -121 40 -121 35 0 53
26 60 86 9 81 22 108 53 114 15 3 30 2 34 -2 4 -3 8 -211 8 -461 l1 -455 124
0 c69 0 125 1 125 3 0 1 -10 7 -22 13 -22 9 -21 9 5 6 l27 -4 0 454 c0 300 -3
452 -10 448 -5 -3 -10 -2 -10 4 0 5 5 13 10 16 6 3 10 1 10 -4 0 -6 9 -11 20
-11 12 0 32 -12 45 -26 l25 -27 0 57 0 56 -265 0 -265 0 -4 -22z m434 -883 c0
-19 -4 -35 -8 -35 -4 0 -6 16 -4 35 2 19 6 35 8 35 2 0 4 -16 4 -35z"/>
<path d="M265 3541 c-3 -5 -1 -12 5 -16 5 -3 10 1 10 9 0 18 -6 21 -15 7z"/>
<path d="M18 3535 c-9 -10 4 -57 18 -62 25 -9 62 6 60 24 -1 23 -63 52 -78 38z"/>
<path d="M266 3465 c-3 -9 0 -15 9 -15 16 0 20 16 6 24 -5 3 -11 -1 -15 -9z"/>
<path d="M2731 3467 c-6 -6 -10 -27 -10 -46 1 -26 3 -29 6 -12 3 13 13 26 24
28 10 3 19 11 19 18 0 18 -25 26 -39 12z"/>
<path d="M26 3451 c-9 -14 11 -58 29 -65 38 -14 55 -7 55 24 0 17 -6 32 -12
34 -39 12 -67 15 -72 7z"/>
<path d="M4272 3448 c-7 -7 -12 -19 -12 -27 0 -14 1 -14 10 -1 8 12 13 13 30
2 16 -10 20 -10 20 1 0 13 -19 37 -30 37 -3 0 -11 -5 -18 -12z"/>
<path d="M646 3434 c-11 -29 -6 -39 19 -39 14 0 25 1 25 2 0 1 -4 13 -10 27
-11 29 -25 34 -34 10z"/>
<path d="M2107 3443 c-4 -3 -7 -14 -7 -24 0 -12 6 -16 20 -12 22 6 22 6 14 27
-7 17 -16 20 -27 9z"/>
<path d="M3834 3436 c-25 -19 -12 -31 14 -15 18 11 24 10 41 -5 18 -17 21 -17
21 -3 0 15 -28 37 -47 37 -5 0 -18 -6 -29 -14z"/>
<path d="M150 3431 c-8 -3 -16 -16 -17 -28 -3 -22 4 -25 45 -23 8 1 3 42 -6
51 -4 4 -14 4 -22 0z"/>
<path d="M3564 3415 c14 -54 50 -78 44 -29 -2 15 -14 34 -27 43 -24 16 -24 15
-17 -14z"/>
<path d="M4507 3433 c-10 -10 -8 -123 2 -123 4 0 11 19 15 43 3 23 9 52 12 65
4 15 2 22 -8 22 -8 0 -18 -3 -21 -7z"/>
<path d="M3620 3421 c0 -6 5 -13 10 -16 6 -3 10 1 10 9 0 9 -4 16 -10 16 -5 0
-10 -4 -10 -9z"/>
<path d="M4717 3390 c-18 -101 -19 -110 -8 -110 15 0 23 38 19 101 l-3 54 -8
-45z"/>
<path d="M3861 3384 c0 -11 3 -14 6 -6 3 7 2 16 -1 19 -3 4 -6 -2 -5 -13z"/>
<path d="M5071 3348 c-1 -33 3 -58 9 -58 12 0 12 67 0 95 -6 14 -9 4 -9 -37z"/>
<path d="M37 3373 c-3 -4 -2 -22 0 -40 5 -28 9 -31 44 -35 38 -3 39 -3 39 29
0 32 0 32 -62 49 -9 3 -18 1 -21 -3z"/>
<path d="M701 3344 c0 -11 3 -14 6 -6 3 7 2 16 -1 19 -3 4 -6 -2 -5 -13z"/>
<path d="M140 3320 c0 -25 4 -30 26 -30 14 0 22 4 19 10 -3 5 -2 18 4 27 7 15
4 18 -20 20 -26 2 -29 -1 -29 -27z"/>
<path d="M220 3306 c0 -9 7 -16 16 -16 17 0 14 22 -4 28 -7 2 -12 -3 -12 -12z"/>
<path d="M889 3271 c-5 -72 11 -83 25 -16 4 20 2 37 -8 50 -13 18 -14 15 -17
-34z"/>
<path d="M671 3103 c0 -109 4 -207 8 -217 6 -16 13 -9 40 40 19 32 58 96 87
140 30 45 54 88 54 96 0 11 -11 15 -43 14 -56 -1 -93 24 -117 80 -11 24 -21
44 -24 44 -3 0 -5 -89 -5 -197z"/>
<path d="M0 3269 c0 -5 5 -7 10 -4 5 3 10 8 10 11 0 2 -4 4 -10 4 -5 0 -10 -5
-10 -11z"/>
<path d="M50 3250 c0 -32 7 -38 50 -42 22 -3 25 1 25 32 0 33 -2 35 -37 38
-36 3 -38 2 -38 -28z"/>
<path d="M2351 3270 c-1 -8 -4 -26 -7 -40 -5 -19 -4 -22 5 -14 7 6 11 24 8 40
-2 16 -5 22 -6 14z"/>
<path d="M150 3240 c0 -23 6 -33 23 -39 28 -11 39 -1 35 35 -2 23 -9 30 -30
32 -25 3 -28 0 -28 -28z"/>
<path d="M220 3247 c0 -23 11 -47 22 -47 14 0 5 53 -9 58 -7 2 -13 -3 -13 -11z"/>
<path d="M2 3225 c0 -16 2 -22 5 -12 2 9 2 23 0 30 -3 6 -5 -1 -5 -18z"/>
<path d="M4638 3227 c-51 -14 -48 -29 4 -25 31 2 44 8 46 21 4 19 3 19 -50 4z"/>
<path d="M25 3180 c-3 -5 -2 -15 1 -24 4 -10 0 -18 -10 -22 -12 -5 -16 -20
-16 -59 l0 -52 81 -6 c45 -4 87 -11 93 -16 15 -13 13 -64 -2 -69 -7 -2 -12 3
-12 12 0 21 -7 23 -88 31 l-72 8 0 -107 0 -106 118 0 118 0 -3 157 c-1 86 -7
159 -12 163 -6 3 -6 11 -1 20 15 24 12 32 -11 25 -15 -5 -19 -4 -15 4 4 6 16
11 27 11 21 0 26 18 7 25 -26 8 -198 12 -203 5z"/>
<path d="M2290 3160 c0 -5 5 -10 10 -10 6 0 10 5 10 10 0 6 -4 10 -10 10 -5 0
-10 -4 -10 -10z"/>
<path d="M1701 2970 c0 -97 3 -140 9 -130 12 18 12 214 0 250 -5 15 -8 -32 -9
-120z"/>
<path d="M3400 2861 c0 -30 4 -41 13 -38 14 5 13 55 -3 71 -7 7 -10 -3 -10
-33z"/>
<path d="M140 2743 c-147 -14 -140 -12 -140 -46 1 -30 6 -34 78 -68 106 -50
119 -54 125 -32 4 14 5 13 6 -4 1 -20 6 -23 46 -23 26 0 45 5 45 11 0 24 -44
154 -54 161 -11 8 -39 8 -106 1z"/>
<path d="M744 2656 c-8 -14 -14 -40 -13 -58 1 -18 -6 -51 -17 -73 -17 -35 -23
-40 -54 -40 -29 0 -36 4 -45 30 -5 17 -14 33 -20 37 -14 11 -193 10 -199 -1
-7 -11 44 -82 79 -110 68 -53 184 -62 264 -22 65 34 115 107 92 135 -9 10 -7
15 9 19 22 6 28 54 10 88 -16 30 -85 26 -106 -5z m46 -96 c-20 -13 -40 -13
-40 0 0 6 12 10 28 10 21 0 24 -2 12 -10z"/>
<path d="M2202 2667 c-6 -7 -14 -32 -18 -55 l-7 -42 67 0 66 0 0 43 c0 24 -5
48 -12 55 -16 16 -83 15 -96 -1z"/>
<path d="M1 2272 c1 -243 4 -355 10 -315 28 220 125 397 246 450 26 12 56 24
66 27 10 3 16 10 13 15 -14 21 -145 102 -172 105 -16 2 -36 5 -44 6 -11 1 -9
4 5 9 18 7 17 10 -15 27 -19 10 -52 26 -72 36 l-38 17 1 -377z"/>
<path d="M1666 2603 c-6 -14 -5 -15 5 -6 7 7 10 15 7 18 -3 3 -9 -2 -12 -12z"/>
<path d="M3115 2590 c-3 -5 -1 -10 4 -10 6 0 11 5 11 10 0 6 -2 10 -4 10 -3 0
-8 -4 -11 -10z"/>
<path d="M4260 2591 c0 -6 4 -13 10 -16 6 -3 7 1 4 9 -7 18 -14 21 -14 7z"/>
<path d="M2570 2550 l-95 -5 52 -55 c55 -59 107 -84 195 -96 77 -11 178 27
239 89 27 27 49 54 49 58 0 5 -45 9 -100 9 -90 0 -100 -2 -100 -18 0 -26 -37
-62 -64 -62 -28 0 -56 29 -56 57 0 27 -8 29 -120 23z"/>
<path d="M240 2540 c0 -5 11 -10 24 -10 14 0 28 5 31 10 4 6 -7 10 -24 10 -17
0 -31 -4 -31 -10z"/>
<path d="M646 2536 c3 -9 11 -16 16 -16 13 0 5 23 -10 28 -7 2 -10 -2 -6 -12z"/>
<path d="M1612 2512 c-12 -20 -29 -47 -38 -59 -15 -21 -15 -23 0 -23 9 0 32
24 51 54 19 30 43 57 52 59 10 3 5 5 -12 6 -25 1 -34 -6 -53 -37z"/>
<path d="M2100 2535 c0 -9 5 -15 11 -13 6 2 11 8 11 13 0 5 -5 11 -11 13 -6 2
-11 -4 -11 -13z"/>
<path d="M3066 2506 c-14 -25 -48 -62 -76 -83 -51 -39 -57 -56 -24 -61 23 -3
91 73 128 142 33 61 8 63 -28 2z"/>
<path d="M3227 2509 c-34 -34 -38 -42 -30 -66 l10 -28 112 -3 c93 -2 112 0
117 13 10 26 -5 65 -31 77 -14 6 -27 19 -30 30 -5 15 -16 18 -58 17 -47 -1
-56 -5 -90 -40z"/>
<path d="M3611 2538 c0 -7 12 -38 27 -68 l27 -55 60 0 60 0 3 68 3 67 -91 0
c-66 0 -90 -3 -89 -12z"/>
<path d="M3975 2520 c39 -74 126 -120 229 -120 115 1 189 37 226 111 l20 39
-59 0 c-33 0 -63 -5 -67 -11 -4 -7 -20 -8 -43 -4 -20 4 -100 9 -179 12 l-143
4 16 -31z"/>
<path d="M4774 2541 c4 -5 -9 -22 -29 -37 -26 -19 -35 -34 -35 -55 0 -24 4
-29 24 -29 13 0 27 6 29 13 4 8 6 8 6 0 1 -8 42 -12 137 -12 119 -1 136 0 130
14 -3 8 -1 15 4 15 6 0 10 5 10 11 0 8 -5 7 -15 -1 -13 -10 -19 -10 -33 3 -15
13 -19 13 -31 0 -16 -17 -87 -9 -110 13 -22 21 -7 27 60 25 35 -1 67 3 75 10
11 9 19 8 34 -6 24 -22 25 -17 5 21 -8 16 -15 23 -15 17 0 -7 -5 -13 -11 -13
-5 0 -8 4 -5 9 3 5 -47 10 -115 10 -76 1 -118 -2 -115 -8z m226 -101 c0 -5 -4
-10 -10 -10 -5 0 -10 5 -10 10 0 6 5 10 10 10 6 0 10 -4 10 -10z"/>
<path d="M2726 2527 c3 -10 9 -15 12 -12 3 3 0 11 -7 18 -10 9 -11 8 -5 -6z"/>
<path d="M882 2471 c-26 -35 -27 -41 -9 -41 16 0 41 43 35 60 -2 6 -13 -2 -26
-19z"/>
<path d="M4492 2467 c-17 -30 -18 -37 -6 -37 8 0 19 12 25 27 16 43 5 49 -19
10z"/>
<path d="M2331 2458 c-15 -42 -8 -46 18 -10 19 27 19 42 0 42 -4 0 -12 -14
-18 -32z"/>
<path d="M4395 2410 c-18 -19 -18 -20 3 -20 24 0 38 18 25 31 -6 6 -16 2 -28
-11z"/>
<path d="M780 2400 c-14 -10 -22 -22 -18 -25 8 -8 58 24 58 36 0 14 -13 10
-40 -11z"/>
<path d="M1464 2405 c-18 -14 -18 -14 9 -15 17 0 27 5 27 15 0 19 -11 19 -36
0z"/>
<path d="M2243 2413 c-16 -6 -17 -33 -3 -33 11 0 26 28 19 34 -2 2 -10 1 -16
-1z"/>
<path d="M3464 2395 c-9 -22 1 -29 15 -11 8 10 9 16 1 21 -5 3 -13 -1 -16 -10z"/>
<path d="M3820 2400 c0 -5 5 -10 10 -10 6 0 10 5 10 10 0 6 -4 10 -10 10 -5 0
-10 -4 -10 -10z"/>
<path d="M2867 2383 c-9 -2 -15 -9 -12 -14 10 -14 42 -10 49 6 5 15 -3 17 -37
8z"/>
<path d="M521 2358 c-22 -19 -27 -20 -55 -8 -55 23 -139 24 -183 2 -137 -70
-212 -269 -213 -559 0 -259 46 -426 149 -536 47 -51 78 -66 148 -73 84 -9 139
9 190 62 44 46 63 93 63 159 0 47 -14 65 -50 65 -45 0 -62 -21 -71 -89 -11
-78 -32 -111 -70 -111 -18 0 -32 7 -39 19 -14 27 -14 935 0 962 7 12 21 19 39
19 33 0 62 -46 81 -130 6 -30 14 -63 17 -72 13 -49 77 -66 92 -25 4 12 3 89
-3 170 -11 151 -16 166 -57 167 -8 0 -26 -10 -38 -22z"/>
<path d="M1173 2363 c9 -9 19 -14 23 -11 10 10 -6 28 -24 28 -15 0 -15 -1 1
-17z"/>
<path d="M4830 2370 c0 -5 5 -10 11 -10 5 0 7 5 4 10 -3 6 -8 10 -11 10 -2 0
-4 -4 -4 -10z"/>
<path d="M1355 2361 c-3 -5 -1 -12 5 -16 12 -7 30 2 30 16 0 12 -27 12 -35 0z"/>
<path d="M3265 2354 c-48 -25 -66 -45 -96 -109 -25 -52 -29 -72 -29 -148 0
-137 50 -256 212 -511 84 -132 120 -205 121 -251 1 -44 -18 -65 -58 -65 -44 0
-82 46 -125 149 -17 42 -39 82 -48 89 -22 17 -69 15 -79 -3 -5 -9 -1 -62 9
-128 29 -181 29 -182 61 -185 17 -2 37 4 48 14 19 17 22 17 70 0 34 -13 68
-17 109 -14 49 3 65 10 98 39 86 75 119 202 89 345 -17 80 -80 214 -177 374
-90 151 -122 217 -128 266 -5 45 8 74 33 74 27 0 73 -52 110 -122 51 -98 61
-108 107 -108 46 0 45 -6 15 175 -22 130 -22 130 -51 133 -19 2 -36 -4 -52
-19 l-23 -22 -52 22 c-61 25 -122 27 -164 5z"/>
<path d="M640 2345 c0 -8 4 -15 9 -15 5 0 11 7 15 15 3 9 0 15 -9 15 -8 0 -15
-7 -15 -15z"/>
<path d="M807 2343 c-16 -15 -5 -64 19 -90 21 -23 25 -34 20 -63 -4 -19 -17
-102 -31 -185 -101 -623 -113 -685 -140 -717 -18 -22 -25 -40 -23 -62 l3 -31
110 0 110 0 3 35 c2 29 -3 41 -28 64 -30 26 -31 30 -25 79 4 29 9 55 12 60 6
10 181 9 187 -2 3 -4 8 -33 12 -63 6 -51 4 -57 -21 -80 -21 -19 -26 -32 -23
-59 l3 -34 180 0 180 0 3 38 c2 26 -3 45 -17 63 -28 36 -37 70 -61 229 -11 77
-29 194 -40 260 -21 128 -67 424 -77 490 -11 77 -5 75 -187 75 -89 0 -166 -3
-169 -7z m137 -315 c3 -13 10 -63 16 -113 6 -49 20 -144 31 -210 10 -66 19
-135 19 -153 l0 -33 -77 3 -78 3 3 50 c2 28 14 118 27 200 14 83 28 179 31
213 7 63 20 81 28 40z"/>
<path d="M920 1808 c0 -18 -3 -43 -6 -55 -8 -28 11 -31 25 -4 11 20 3 91 -10
91 -5 0 -9 -15 -9 -32z"/>
<path d="M890 1576 c0 -9 5 -16 10 -16 6 0 10 4 10 9 0 6 -4 13 -10 16 -5 3
-10 -1 -10 -9z"/>
<path d="M1417 2343 c-18 -17 -6 -73 21 -98 l27 -25 3 -453 3 -453 -26 -24
c-24 -23 -31 -52 -19 -84 5 -13 24 -16 100 -16 82 0 95 2 104 19 16 31 12 48
-20 81 l-30 31 0 287 c0 166 4 281 9 272 5 -8 32 -96 59 -195 70 -249 64 -237
109 -233 37 3 38 4 54 63 10 33 39 139 66 235 l48 175 3 -305 c2 -282 1 -306
-15 -317 -36 -25 -43 -34 -43 -61 0 -49 11 -52 197 -52 165 0 173 1 183 21 16
29 5 65 -25 85 l-25 16 0 458 0 459 31 21 c25 19 30 28 27 59 l-3 36 -152 3
-151 3 -7 -33 c-4 -18 -24 -94 -45 -168 -21 -74 -43 -155 -50 -179 -6 -24 -15
-40 -19 -35 -4 5 -18 47 -30 94 -13 47 -31 112 -41 145 -10 34 -23 87 -30 118
l-13 57 -147 0 c-81 0 -150 -3 -153 -7z"/>
<path d="M2305 2331 c-9 -29 3 -62 31 -84 l24 -18 0 -463 0 -463 -25 -11 c-19
-9 -25 -19 -25 -45 0 -18 5 -38 12 -45 19 -19 362 -17 377 2 18 21 9 67 -14
80 -41 23 -44 37 -45 172 l0 131 88 6 c189 13 286 85 328 242 29 107 11 283
-36 360 -29 47 -95 104 -149 129 -43 19 -65 21 -303 24 -251 3 -256 3 -263
-17z m410 -61 c48 -18 55 -57 55 -295 0 -231 -7 -272 -50 -295 -11 -6 -33 -10
-48 -8 l-27 3 -3 290 c-1 159 0 295 3 302 5 16 34 17 70 3z"/>
<path d="M2672 2223 c2 -12 11 -17 23 -15 25 5 29 8 20 21 -11 19 -47 13 -43
-6z"/>
<path d="M2675 1720 c-3 -5 1 -10 10 -10 9 0 13 5 10 10 -3 6 -8 10 -10 10 -2
0 -7 -4 -10 -10z"/>
<path d="M3717 2343 c-19 -18 -5 -66 28 -97 l35 -33 0 -446 c0 -477 1 -466
-49 -482 -20 -6 -37 -56 -26 -75 4 -6 80 -10 206 -10 l199 0 0 35 c0 28 -5 37
-29 49 -16 9 -31 23 -35 31 -10 27 -7 891 3 918 5 14 21 27 35 31 23 6 26 12
26 46 l0 40 -193 0 c-107 0 -197 -3 -200 -7z"/>
<path d="M4187 2343 c-15 -25 -30 -224 -18 -242 10 -15 68 -18 82 -4 4 4 14
44 21 88 12 71 16 81 41 93 15 7 32 10 37 7 6 -4 10 -180 10 -490 0 -426 -2
-485 -16 -499 -8 -9 -19 -16 -24 -16 -13 0 -20 -30 -14 -57 l7 -26 101 6 c56
3 120 12 144 21 42 15 77 12 66 -5 -3 -5 10 -9 28 -9 l33 1 -25 14 c-23 13
-15 21 14 16 5 -1 4 5 -4 13 -7 9 -10 16 -7 16 3 0 -4 10 -17 23 l-22 22 4
480 c2 264 7 484 12 488 16 17 49 -14 61 -56 23 -86 45 -132 65 -135 19 -3 19
-2 0 13 -17 12 -18 17 -6 28 10 9 12 9 6 0 -4 -8 -2 -13 6 -13 8 0 20 6 27 13
11 10 11 8 1 -11 -13 -27 -4 -45 11 -22 5 8 7 31 5 50 -3 19 -8 70 -12 112 -5
58 -11 77 -23 80 -32 9 -589 9 -594 1z m598 -44 c-8 -13 -32 -11 -41 3 -5 8
-2 9 9 5 10 -3 17 -2 17 4 0 6 5 7 10 4 6 -4 8 -11 5 -16z m2 -71 c-3 -7 -5
-2 -5 12 0 14 2 19 5 13 2 -7 2 -19 0 -25z m-47 -4 c0 -8 -5 -12 -10 -9 -6 4
-8 11 -5 16 9 14 15 11 15 -7z m-133 -871 c-3 -10 -5 -2 -5 17 0 19 2 27 5 18
2 -10 2 -26 0 -35z m13 -57 c0 -8 8 -16 18 -19 16 -4 16 -4 -1 -12 -21 -9 -22
-8 -31 23 -5 13 -3 22 3 22 6 0 11 -6 11 -14z"/>
<path d="M691 2331 c-7 -5 -11 -13 -7 -19 8 -14 46 -3 46 14 0 16 -18 18 -39
5z"/>
<path d="M4893 2333 c9 -2 15 -8 12 -13 -8 -13 44 -45 72 -45 13 -1 23 2 23 6
0 4 3 14 6 23 8 21 -14 21 -38 -1 -17 -16 -20 -16 -35 0 -16 16 -16 17 7 17
14 0 32 5 40 10 11 7 -3 9 -45 9 -33 -1 -52 -3 -42 -6z"/>
<path d="M5018 2333 c12 -2 32 -2 45 0 12 2 2 4 -23 4 -25 0 -35 -2 -22 -4z"/>
<path d="M1290 2320 l-35 -7 33 -2 c17 0 35 -1 39 -2 4 0 9 4 11 10 4 12 4 12
-48 1z"/>
<path d="M4890 2281 c0 -5 7 -11 15 -15 8 -3 15 -1 15 3 0 5 -7 11 -15 15 -8
3 -15 1 -15 -3z"/>
<path d="M2270 2235 c-10 -13 -9 -15 8 -15 15 0 20 5 16 15 -4 8 -7 15 -9 15
-1 0 -8 -7 -15 -15z"/>
<path d="M3370 2236 c0 -8 3 -21 6 -30 5 -14 8 -14 21 0 12 12 13 18 3 29 -16
19 -30 19 -30 1z"/>
<path d="M4850 2227 c0 -28 6 -32 28 -19 9 7 8 13 -8 27 -20 18 -20 18 -20 -8z"/>
<path d="M417 2233 c-15 -15 -6 -43 13 -43 12 0 24 -10 30 -22 5 -13 9 -17 9
-10 1 20 -27 82 -37 82 -5 0 -12 -3 -15 -7z"/>
<path d="M4103 2230 c-13 -5 -23 -16 -23 -25 0 -24 44 -12 48 13 2 12 2 22 0
21 -2 0 -13 -4 -25 -9z"/>
<path d="M4307 2180 c-4 -30 -10 -67 -13 -82 -4 -17 -1 -28 6 -28 17 0 21 22
18 96 l-3 69 -8 -55z"/>
<path d="M2231 2183 c0 -25 1 -26 9 -8 12 27 12 35 0 35 -5 0 -10 -12 -9 -27z"/>
<path d="M4663 2150 c1 -39 6 -63 12 -60 11 6 8 72 -5 104 -7 15 -9 1 -7 -44z"/>
<path d="M2270 2169 c0 -11 5 -17 10 -14 6 3 10 13 10 21 0 8 -4 14 -10 14 -5
0 -10 -9 -10 -21z"/>
<path d="M440 1797 c0 -167 3 -306 6 -309 3 -4 22 5 42 19 38 25 80 27 153 8
26 -7 26 -6 42 82 9 48 26 152 38 230 22 137 22 143 5 187 -18 48 -31 51 -46
10 -15 -39 -68 -66 -115 -59 -51 8 -83 38 -98 92 -6 24 -15 43 -19 43 -4 0 -8
-137 -8 -303z"/>
<path d="M4951 2044 c0 -11 3 -14 6 -6 3 7 2 16 -1 19 -3 4 -6 -2 -5 -13z"/>
<path d="M4815 2020 c-32 -14 -37 -19 -22 -25 28 -12 67 3 67 25 0 11 -1 20
-2 19 -2 0 -21 -9 -43 -19z"/>
<path d="M4243 2017 c-43 -14 -42 -27 2 -27 28 0 35 4 35 20 0 11 -1 19 -2 19
-2 -1 -18 -7 -35 -12z"/>
<path d="M3620 1992 c-44 -15 -45 -15 -18 -24 30 -10 78 7 86 30 5 15 -10 14
-68 -6z"/>
<path d="M3110 1926 c0 -20 5 -36 10 -36 6 0 10 13 10 29 0 17 -4 33 -10 36
-6 4 -10 -8 -10 -29z"/>
<path d="M752 1865 c0 -16 2 -22 5 -12 2 9 2 23 0 30 -3 6 -5 -1 -5 -18z"/>
<path d="M3111 1768 c-28 -64 -77 -127 -122 -158 -62 -42 -152 -77 -221 -85
-53 -7 -66 -13 -53 -27 8 -8 126 11 195 31 36 11 77 22 93 26 16 3 27 12 27
21 0 9 22 46 48 83 35 48 49 76 51 104 1 20 0 37 -1 37 -2 0 -10 -15 -17 -32z"/>
<path d="M722 1710 c0 -14 2 -19 5 -12 2 6 2 18 0 25 -3 6 -5 1 -5 -13z"/>
<path d="M1610 1612 c0 -47 3 -62 13 -59 14 5 12 80 -3 106 -7 11 -9 -3 -10
-47z"/>
<path d="M1872 1619 c-17 -72 -16 -85 3 -65 18 18 33 116 18 116 -5 0 -15 -23
-21 -51z"/>
<path d="M712 1635 c0 -16 2 -22 5 -12 2 9 2 23 0 30 -3 6 -5 -1 -5 -18z"/>
<path d="M1 813 l-1 -813 213 0 213 0 33 34 c31 32 43 48 71 101 6 12 23 26
38 33 15 6 45 38 66 69 22 32 52 76 67 98 48 71 135 257 167 355 34 107 58
220 71 330 4 41 11 82 15 90 3 9 1 23 -6 33 -12 15 -16 15 -58 1 -33 -11 -73
-15 -147 -12 -90 3 -104 6 -126 27 l-25 23 -66 -32 c-61 -30 -71 -32 -143 -28
-149 10 -217 62 -300 228 -40 80 -56 126 -67 190 -12 77 -14 7 -15 -727z m59
-97 c0 -2 -7 -6 -15 -10 -8 -3 -15 -1 -15 4 0 6 7 10 15 10 8 0 15 -2 15 -4z
m14 -89 c8 -12 8 -22 0 -34 -21 -33 -34 -26 -34 17 0 43 13 50 34 17z m48 -6
c-7 -4 -10 -15 -6 -24 4 -11 1 -17 -9 -17 -10 0 -14 7 -10 23 10 47 13 51 26
38 9 -9 9 -14 -1 -20z m48 -31 c0 -5 -2 -10 -4 -10 -3 0 -8 5 -11 10 -3 6 -1
10 4 10 6 0 11 -4 11 -10z m-82 -179 c8 -18 11 -44 6 -65 -12 -66 -34 -37 -34
45 0 56 9 62 28 20z m57 17 c2 -7 5 -37 8 -65 4 -48 2 -53 -16 -53 -14 0 -18
5 -14 20 3 11 1 23 -4 26 -10 6 -12 67 -2 77 10 11 23 8 28 -5z m59 -41 c-3
-10 2 -29 11 -43 16 -25 16 -26 -7 -19 -31 10 -35 14 -41 57 -6 43 -1 51 24
35 12 -7 17 -18 13 -30z m86 -33 c0 -8 -10 -14 -25 -14 -14 0 -25 5 -25 11 0
6 7 9 15 5 9 -3 15 0 15 10 0 8 5 12 10 9 6 -3 10 -13 10 -21z m-17 -51 c-7
-2 -19 -2 -25 0 -7 3 -2 5 12 5 14 0 19 -2 13 -5z m132 -73 c-3 -5 -12 -10
-18 -10 -7 0 -6 4 3 10 19 12 23 12 15 0z"/>
<path d="M702 1570 c0 -14 2 -19 5 -12 2 6 2 18 0 25 -3 6 -5 1 -5 -13z"/>
<path d="M2675 1549 c-10 -14 -1 -21 19 -13 9 3 13 10 10 15 -7 12 -21 11 -29
-2z"/>
<path d="M674 1466 c-6 -7 -14 -34 -18 -62 -4 -27 -10 -60 -12 -74 l-5 -25 19
22 c13 14 23 45 27 83 8 66 6 74 -11 56z"/>
<path d="M860 1389 c0 -18 2 -19 15 -9 8 7 15 16 15 21 0 5 -7 9 -15 9 -9 0
-15 -9 -15 -21z"/>
<path d="M975 1400 c3 -5 10 -10 16 -10 5 0 9 5 9 10 0 6 -7 10 -16 10 -8 0
-12 -4 -9 -10z"/>
<path d="M1797 1391 c-32 -15 -35 -19 -19 -23 23 -6 63 11 70 30 5 16 -4 14
-51 -7z"/>
<path d="M893 1365 c-3 -9 3 -25 12 -35 17 -19 19 -19 37 -4 29 27 23 54 -12
54 -18 0 -33 -6 -37 -15z"/>
<path d="M451 1351 c-1 -8 -8 -11 -22 -8 -16 4 -20 1 -17 -15 2 -12 8 -23 15
-25 14 -5 36 33 29 50 -3 8 -5 8 -5 -2z"/>
<path d="M860 1340 c0 -11 4 -20 9 -20 5 0 7 9 4 20 -3 11 -7 20 -9 20 -2 0
-4 -9 -4 -20z"/>
<path d="M3655 1290 c-22 -43 -23 -51 -10 -48 17 3 52 85 41 95 -2 3 -16 -18
-31 -47z"/>
<path d="M597 1236 c-15 -23 -16 -26 -2 -26 17 0 29 22 23 41 -2 6 -12 0 -21
-15z"/>
<path d="M918 1233 c5 -21 7 -23 10 -9 2 10 0 22 -6 28 -6 6 -7 0 -4 -19z"/>
<path d="M1385 1180 c-3 -5 -1 -10 4 -10 6 0 11 5 11 10 0 6 -2 10 -4 10 -3 0
-8 -4 -11 -10z"/>
<path d="M3605 1180 c-10 -17 -102 -60 -127 -60 -13 0 -30 -5 -38 -11 -11 -7
3 -9 51 -7 52 3 76 10 108 31 22 15 41 34 41 42 0 17 -26 20 -35 5z"/>
<path d="M2275 1170 c-3 -5 -1 -10 4 -10 6 0 11 5 11 10 0 6 -2 10 -4 10 -3 0
-8 -4 -11 -10z"/>
<path d="M3305 1170 c-3 -5 1 -10 10 -10 9 0 13 5 10 10 -3 6 -8 10 -10 10 -2
0 -7 -4 -10 -10z"/>
<path d="M1650 1144 c-14 -7 -52 -14 -85 -15 -33 0 -71 -4 -85 -8 -22 -7 -19
-9 23 -16 52 -8 139 0 169 16 10 5 18 16 18 24 0 18 -7 18 -40 -1z"/>
<path d="M2730 1143 c-17 -9 -75 -13 -190 -13 -91 0 -172 -5 -180 -10 -17 -11
20 -13 239 -12 105 0 136 3 148 15 23 22 12 35 -17 20z"/>
<path d="M4145 1146 c-16 -12 -56 -15 -200 -16 -99 0 -187 -4 -194 -9 -29 -19
41 -24 218 -18 131 5 178 10 189 21 22 22 11 40 -13 22z"/>
<path d="M4710 1145 c-18 -11 -66 -15 -180 -15 -85 -1 -164 -5 -175 -9 -33
-13 59 -19 217 -13 109 3 147 8 161 20 34 30 19 41 -23 17z"/>
<path d="M1210 1133 c-224 -5 -218 -23 7 -23 165 0 220 7 177 24 -9 3 -19 5
-22 4 -4 -1 -77 -4 -162 -5z"/>
<path d="M3283 1128 c-18 -6 -33 -15 -33 -19 0 -12 43 -11 77 2 22 8 24 12 13
19 -17 11 -15 11 -57 -2z"/>
<path d="M1935 1120 c-13 -5 15 -9 80 -11 141 -5 296 1 289 12 -7 11 -341 11
-369 -1z"/>
<path d="M4925 1120 c-4 -6 30 -10 94 -10 61 0 101 4 101 10 0 6 -38 10 -94
10 -53 0 -98 -4 -101 -10z"/>
<path d="M3905 953 c-21 -5 -43 -25 -87 -81 -25 -30 -28 -43 -28 -104 0 -82
14 -114 71 -159 34 -27 53 -34 100 -37 49 -4 65 0 103 22 62 36 97 98 97 170
0 62 -15 97 -63 144 -48 45 -121 62 -193 45z m145 -33 c60 -31 93 -81 98 -148
3 -50 0 -62 -27 -103 -71 -106 -218 -108 -293 -5 -27 37 -29 47 -26 102 5 75
35 125 93 154 51 25 105 25 155 0z"/>
<path d="M3862 868 c-19 -19 -14 -48 19 -99 45 -71 114 -131 146 -127 14 2 31
11 37 21 9 15 7 21 -9 33 -11 8 -30 12 -42 9 -34 -8 -93 66 -91 115 1 20 -2
42 -6 48 -9 15 -39 15 -54 0z"/>
<path d="M4314 849 c-14 -16 -19 -36 -19 -84 0 -48 5 -68 19 -84 39 -43 96
-12 96 51 0 32 16 37 25 8 6 -19 16 -24 43 -21 23 3 12 -29 -13 -39 -32 -12
-32 -20 0 -20 14 0 37 11 50 25 21 20 25 34 25 82 0 67 -19 103 -54 103 -29 0
-51 -25 -64 -70 l-10 -35 -1 33 c-1 36 -31 72 -59 72 -11 0 -27 -9 -38 -21z
m46 -85 c0 -54 -4 -83 -10 -79 -11 7 -14 148 -3 158 12 13 13 7 13 -79z m140
38 c0 -45 -14 -72 -24 -47 -8 22 -8 80 0 88 13 13 24 -5 24 -41z"/>
<path d="M4580 844 c-20 -20 -22 -27 -11 -33 10 -7 13 -26 9 -80 l-5 -71 26 0
27 0 -3 88 c-1 48 -3 95 -3 105 0 24 -12 21 -40 -9z"/>
<path d="M4675 854 c-9 -9 -15 -24 -13 -33 5 -24 33 -19 36 7 6 37 27 19 26
-22 -1 -25 -11 -49 -33 -76 -46 -58 -42 -70 24 -70 53 0 55 1 55 27 0 21 -3
24 -12 15 -14 -14 -58 -16 -58 -4 0 5 16 23 35 41 28 25 35 39 35 69 0 21 -5
43 -12 50 -17 17 -64 15 -83 -4z"/>
<path d="M4810 855 c-13 -16 -10 -51 5 -48 6 1 11 12 13 23 2 12 9 19 15 17
21 -6 19 -44 -3 -65 l-21 -19 21 -6 c15 -4 20 -13 20 -41 0 -25 -4 -36 -15
-36 -8 0 -15 9 -15 19 0 11 -4 22 -9 26 -15 8 -24 -13 -17 -41 5 -19 13 -24
40 -24 56 0 85 52 50 91 -14 16 -14 20 1 43 16 24 16 28 1 51 -19 28 -66 34
-86 10z"/>
<path d="M4946 844 c-21 -19 -26 -28 -17 -34 9 -5 12 -29 9 -79 l-3 -71 34 0
c26 0 32 3 27 16 -3 9 -6 56 -6 105 0 49 -3 89 -7 89 -5 0 -21 -12 -37 -26z"/>
<path d="M5048 845 c-16 -13 -23 -27 -18 -30 6 -3 10 -40 10 -81 l0 -74 31 0
c24 0 30 3 25 16 -3 9 -6 56 -6 105 0 49 -3 89 -7 89 -5 0 -20 -11 -35 -25z"/>
<path d="M978 833 c-36 -41 -29 -171 10 -192 22 -11 62 4 62 24 0 20 -10 19
-26 -2 -11 -15 -13 -5 -14 75 0 55 4 92 10 92 6 0 10 -6 10 -14 0 -8 5 -18 10
-21 6 -4 10 7 10 24 0 27 -3 31 -28 31 -16 0 -36 -8 -44 -17z"/>
<path d="M1345 830 c-15 -16 -18 -35 -16 -102 1 -46 3 -83 4 -84 1 -1 10 -4
20 -6 17 -3 18 6 19 100 1 56 -1 104 -4 107 -3 3 -13 -4 -23 -15z"/>
<path d="M1647 828 c-15 -16 -17 -33 -15 -101 3 -76 5 -82 26 -85 21 -3 22 0
23 80 2 124 -3 139 -34 106z"/>
<path d="M1840 745 l0 -105 50 0 c45 0 51 3 65 30 22 43 20 122 -6 154 -17 21
-29 26 -65 26 l-44 0 0 -105z m78 -5 c-2 -48 -7 -75 -15 -78 -10 -3 -13 17
-13 76 0 43 3 82 7 86 16 16 24 -16 21 -84z"/>
<path d="M2320 750 c0 -55 0 -103 0 -107 0 -4 19 -6 43 -5 60 4 77 28 77 108
0 79 -19 104 -80 104 l-40 0 0 -100z m70 -11 c0 -46 -4 -79 -10 -79 -6 0 -10
35 -10 86 0 54 4 83 10 79 6 -3 10 -42 10 -86z"/>
<path d="M2794 745 l1 -105 40 0 c49 0 61 7 74 43 17 43 13 99 -9 135 -17 28
-25 32 -63 32 l-44 0 1 -105z m66 0 c0 -50 -4 -85 -10 -85 -6 0 -10 35 -10 85
0 50 4 85 10 85 6 0 10 -35 10 -85z"/>
<path d="M3123 828 c3 -13 11 -54 18 -93 22 -133 44 -138 69 -14 10 47 21 96
25 107 5 18 2 22 -14 22 -14 0 -19 -6 -19 -22 1 -13 1 -39 0 -58 -2 -27 -5
-31 -12 -19 -5 9 -11 34 -12 55 -3 35 -7 39 -32 42 -25 3 -28 1 -23 -20z"/>
<path d="M1084 799 c-28 -31 -26 -122 3 -151 19 -18 26 -20 47 -10 48 22 57
136 12 167 -28 20 -39 19 -62 -6z m46 -67 c0 -31 -5 -64 -10 -72 -7 -10 -10 9
-10 63 0 50 4 76 10 72 6 -3 10 -32 10 -63z"/>
<path d="M1203 811 c-4 -3 -8 -43 -8 -88 0 -79 1 -83 22 -83 22 0 23 4 23 70
0 40 4 70 10 70 6 0 10 -30 10 -70 0 -69 0 -70 26 -70 l26 0 -4 80 c-3 44 -7
83 -11 86 -9 9 -83 13 -94 5z"/>
<path d="M1423 810 c-24 -10 -30 -34 -12 -46 7 -4 20 4 30 17 19 24 19 24 19
2 0 -14 -10 -27 -27 -35 -22 -10 -29 -21 -31 -51 -4 -50 8 -63 60 -62 l43 1 3
73 c4 99 -20 127 -85 101z m39 -126 c-2 -13 -8 -21 -13 -18 -11 6 -12 48 -2
57 11 12 20 -12 15 -39z"/>
<path d="M1556 807 c-41 -30 -40 -138 2 -165 23 -15 25 -15 43 7 10 13 16 28
13 33 -4 6 -12 1 -19 -12 -10 -20 -13 -20 -18 -5 -11 27 -8 125 3 125 6 0 10
-7 10 -16 0 -9 6 -14 13 -11 14 5 10 39 -6 49 -16 10 -21 10 -41 -5z"/>
<path d="M2005 806 c-11 -8 -16 -19 -12 -30 9 -22 28 -20 34 4 7 26 23 26 23
0 0 -13 -10 -24 -24 -30 -39 -15 -58 -65 -37 -99 5 -8 28 -15 55 -16 l46 -2 0
83 c0 72 -3 85 -19 94 -26 14 -44 13 -66 -4z m45 -106 c0 -22 -4 -40 -10 -40
-11 0 -14 63 -3 73 11 12 13 8 13 -33z"/>
<path d="M2130 812 c-6 -2 -10 -40 -10 -88 0 -83 0 -84 25 -84 23 0 24 2 18
49 -3 27 -2 62 3 78 7 23 9 15 14 -47 5 -68 7 -75 28 -78 21 -3 22 -1 22 77 0
53 -4 82 -12 88 -13 8 -69 11 -88 5z"/>
<path d="M2476 805 c-19 -20 -17 -39 6 -43 9 -2 18 6 21 20 5 18 9 20 19 10
14 -14 4 -27 -34 -46 -17 -8 -24 -21 -26 -49 -4 -50 8 -63 60 -62 l43 1 3 74
c1 41 -1 81 -6 87 -14 22 -67 27 -86 8z m52 -107 c-3 -34 -20 -42 -26 -13 -5
22 5 45 18 45 7 0 10 -14 8 -32z"/>
<path d="M2600 812 c-6 -2 -10 -40 -10 -88 0 -83 0 -84 25 -84 24 0 25 2 25
76 0 47 4 73 10 69 6 -3 10 -37 10 -76 0 -62 2 -69 20 -69 18 0 20 7 20 85 0
61 -4 85 -12 86 -35 3 -79 4 -88 1z"/>
<path d="M2963 805 c-43 -30 -42 -132 2 -161 23 -15 27 -15 50 0 14 9 25 23
25 31 0 21 -13 19 -28 -5 -16 -27 -32 -17 -32 21 0 25 5 30 30 36 35 6 40 34
14 71 -18 26 -32 27 -61 7z m37 -30 c0 -14 -4 -25 -10 -25 -11 0 -14 33 -3 43
11 11 13 8 13 -18z"/>
<path d="M3265 806 c-12 -9 -20 -30 -23 -68 -4 -47 -1 -58 19 -82 21 -24 27
-26 52 -17 17 7 27 18 27 31 0 27 -16 26 -24 -2 -8 -32 -29 -9 -24 28 2 21 9
30 26 32 31 5 31 55 0 76 -27 19 -29 19 -53 2z m32 -43 c-3 -10 -5 -4 -5 12 0
17 2 24 5 18 2 -7 2 -21 0 -30z"/>
<path d="M3416 812 c-3 -5 -16 -7 -28 -5 -22 4 -23 2 -26 -81 l-3 -86 26 0
c24 0 25 2 25 65 0 51 3 65 15 65 8 0 15 9 15 19 0 22 -16 36 -24 23z"/>
<path d="M3475 806 c-11 -8 -16 -19 -12 -30 9 -22 28 -20 34 4 7 26 23 26 23
0 0 -11 -8 -23 -17 -27 -32 -11 -53 -36 -53 -62 0 -42 14 -54 64 -56 l46 -2 0
83 c0 72 -3 85 -19 94 -26 14 -44 13 -66 -4z m45 -111 c0 -19 -4 -35 -10 -35
-5 0 -10 16 -10 35 0 19 5 35 10 35 6 0 10 -16 10 -35z"/>
<path d="M1787 783 c-13 -12 -7 -43 7 -43 19 0 28 14 20 34 -7 17 -16 20 -27
9z"/>
<path d="M1780 661 c0 -11 4 -22 9 -25 12 -8 34 21 26 34 -11 17 -35 11 -35
-9z"/>
<path d="M2362 578 c-5 -7 -10 -57 -11 -110 l-2 -98 25 0 c26 0 26 1 26 84 0
47 -4 87 -9 90 -5 3 -7 15 -4 26 6 22 -9 27 -25 8z"/>
<path d="M2537 583 c-4 -3 -7 -53 -7 -110 0 -101 1 -104 22 -101 20 3 21 8 19
88 -1 47 -7 88 -13 91 -7 4 -6 8 3 11 7 2 9 10 5 16 -8 13 -19 15 -29 5z"/>
<path d="M3187 583 c-4 -3 -7 -53 -7 -110 0 -102 0 -104 22 -101 22 3 22 7 19
88 -1 47 -7 88 -13 91 -6 4 -5 8 3 11 7 2 9 10 5 16 -8 13 -19 15 -29 5z"/>
<path d="M1840 475 c0 -86 3 -105 15 -105 12 0 13 9 8 45 -4 31 -2 45 6 45 6
0 11 -9 11 -20 0 -27 18 -25 30 3 7 18 9 13 9 -25 1 -45 2 -48 29 -48 l27 0 0
105 0 106 -25 -3 c-17 -2 -26 -10 -28 -25 -4 -30 -16 -29 -30 2 -7 15 -20 25
-32 25 -19 0 -20 -6 -20 -105z"/>
<path d="M2795 475 c0 -77 3 -105 13 -105 8 0 12 16 12 48 1 45 1 46 14 23
l14 -24 16 29 17 29 -4 -52 c-4 -52 -4 -53 24 -53 l29 0 0 105 c0 104 0 105
-24 105 -19 0 -26 -7 -31 -30 -4 -16 -10 -30 -15 -30 -4 0 -10 14 -13 30 -5
23 -12 30 -29 30 -22 0 -23 -2 -23 -105z"/>
<path d="M2010 535 c-7 -8 -10 -21 -6 -30 6 -18 36 -9 36 11 0 8 5 14 10 14
21 0 9 -26 -25 -53 -25 -20 -35 -36 -35 -56 0 -36 14 -47 68 -54 l42 -5 0 82
c0 50 -5 87 -12 94 -17 17 -63 15 -78 -3z m50 -100 c0 -19 -4 -35 -10 -35 -11
0 -14 53 -3 63 11 12 13 8 13 -28z"/>
<path d="M2120 491 c0 -32 3 -72 6 -89 6 -30 8 -31 61 -31 45 0 54 3 49 16 -3
8 -6 48 -6 89 0 67 -2 74 -20 74 -18 0 -20 -7 -20 -75 0 -43 -4 -75 -10 -75
-6 0 -10 32 -10 75 0 73 -1 75 -25 75 -24 0 -25 -3 -25 -59z"/>
<path d="M2260 460 l0 -90 26 0 c25 0 25 2 23 59 -2 45 2 63 15 76 24 25 15
39 -27 43 l-37 2 0 -90z"/>
<path d="M2440 535 c-18 -21 -25 -108 -11 -133 18 -34 47 -45 65 -26 18 17 21
44 6 44 -5 0 -10 -7 -10 -15 0 -8 -4 -15 -10 -15 -6 0 -10 30 -9 73 0 53 3 66
9 50 11 -27 30 -30 30 -5 0 39 -46 56 -70 27z"/>
<path d="M2612 538 c-18 -18 -14 -38 8 -38 11 0 20 7 20 15 0 8 5 15 10 15 22
0 8 -29 -25 -54 -25 -20 -35 -35 -35 -55 0 -34 29 -64 50 -51 8 5 22 4 33 -2
10 -5 22 -7 25 -3 10 10 1 159 -10 173 -13 15 -60 16 -76 0z m48 -108 c0 -16
-4 -30 -10 -30 -5 0 -10 14 -10 30 0 17 5 30 10 30 6 0 10 -13 10 -30z"/>
<path d="M2962 538 c-7 -7 -12 -18 -12 -25 0 -19 31 -16 46 5 13 16 13 16 14
-3 0 -12 -12 -27 -30 -37 -26 -15 -30 -23 -30 -58 0 -45 10 -53 69 -53 l36 0
-1 75 c-1 42 -4 83 -7 92 -8 19 -67 22 -85 4z m50 -108 c-2 -16 -8 -30 -13
-30 -10 0 -12 31 -3 54 10 26 21 9 16 -24z"/>
<path d="M3080 459 c0 -88 0 -89 25 -89 24 0 25 2 25 70 0 51 3 69 13 68 6 -2
12 6 12 17 0 15 -8 20 -37 21 l-38 3 0 -90z"/>
<path d="M3263 543 c-18 -7 -16 -43 2 -43 7 0 19 8 24 18 10 16 10 15 11 -3 0
-13 -12 -28 -30 -38 -23 -14 -30 -25 -30 -50 0 -48 12 -59 61 -60 l44 -1 3 78
c2 49 -1 83 -9 92 -11 14 -51 18 -76 7z m39 -123 c-6 -43 -12 -37 -12 13 0 25
4 37 8 29 5 -7 7 -26 4 -42z"/>
<path d="M3380 547 c0 -1 -2 -41 -3 -90 -2 -84 -1 -87 21 -87 21 0 22 4 22 69
0 95 18 102 22 9 3 -67 5 -73 26 -76 21 -3 22 -1 22 76 0 52 -4 83 -12 90 -11
8 -97 16 -98 9z"/>
<path d="M3527 532 c-18 -20 -25 -91 -13 -130 4 -12 16 -27 27 -32 29 -16 56
4 71 51 17 57 -5 123 -43 127 -15 2 -32 -5 -42 -16z m43 -78 c0 -36 -4 -64
-10 -64 -6 0 -10 30 -10 71 0 44 4 68 10 64 6 -3 10 -35 10 -71z"/>
<path d="M4816 502 c-7 -11 52 -28 61 -18 9 8 2 13 -28 21 -15 4 -30 2 -33 -3z"/>
<path d="M4275 456 c-31 -73 -8 -176 38 -176 14 0 30 7 37 15 16 19 5 34 -12
17 -23 -23 -28 -11 -28 73 0 52 4 85 10 85 6 0 13 -7 16 -15 9 -23 26 -18 22
8 -2 17 -11 23 -36 25 -29 3 -34 -1 -47 -32z"/>
<path d="M4606 471 c-11 -12 -16 -36 -16 -82 0 -83 8 -109 31 -109 17 0 19 9
19 99 0 55 -4 102 -9 105 -4 3 -16 -3 -25 -13z"/>
<path d="M4385 447 c-10 -8 -15 -19 -11 -25 10 -17 33 -15 40 4 3 8 10 13 15
9 13 -8 2 -35 -14 -35 -25 0 -46 -37 -43 -77 l3 -38 53 -2 52 -2 0 79 c0 68
-3 81 -19 90 -27 14 -54 13 -76 -3z m55 -107 c0 -16 -4 -32 -10 -35 -6 -4 -10
10 -10 35 0 25 4 39 10 35 6 -3 10 -19 10 -35z"/>
<path d="M4507 453 c-13 -12 -7 -58 13 -102 19 -42 19 -72 0 -41 -12 19 -22 8
-14 -14 4 -11 15 -16 33 -14 21 2 27 9 29 35 2 18 -6 49 -18 73 -20 39 -20 72
0 40 11 -18 25 -6 17 15 -6 15 -48 21 -60 8z"/>
<path d="M4675 447 c-19 -15 -13 -37 11 -37 8 0 17 7 20 15 8 19 24 20 24 1 0
-8 -16 -23 -35 -35 -29 -17 -35 -26 -35 -53 0 -48 10 -56 63 -56 l47 0 0 77
c0 47 -5 82 -12 89 -16 16 -60 15 -83 -1z m55 -101 c0 -19 -4 -38 -10 -41 -6
-4 -10 10 -10 34 0 23 5 41 10 41 6 0 10 -15 10 -34z"/>
<path d="M4799 457 c0 -1 -1 -41 -2 -90 -2 -84 -1 -87 21 -87 21 0 22 4 22 75
0 43 4 75 10 75 6 0 10 -32 10 -75 0 -73 1 -75 25 -75 24 0 25 2 25 71 0 93
-8 106 -65 107 -25 0 -45 -1 -46 -1z"/>
<path d="M4943 453 c-21 -8 -15 -43 7 -43 11 0 20 7 20 15 0 8 5 15 10 15 21
0 9 -30 -19 -44 -30 -16 -41 -34 -41 -70 0 -33 19 -46 67 -46 l43 0 0 78 c0
47 -5 83 -12 90 -12 12 -52 15 -75 5z m47 -108 c0 -19 -4 -35 -10 -35 -5 0
-10 16 -10 35 0 19 5 35 10 35 6 0 10 -16 10 -35z"/>
<path d="M5058 370 l-3 -90 26 0 c25 0 25 1 21 61 -3 37 0 65 7 72 21 21 12
42 -18 44 l-30 2 -3 -89z"/>
<path d="M3905 435 c-166 -64 -167 -301 -1 -365 l26 -10 0 60 c0 52 -2 60 -19
60 -37 0 -43 66 -7 79 17 7 25 20 29 49 9 50 34 72 88 75 44 2 44 2 44 -33 0
-28 -4 -35 -25 -40 -33 -8 -34 -44 -2 -48 29 -4 36 -21 23 -55 -7 -17 -18 -27
-31 -27 -18 0 -20 -6 -20 -53 0 -30 3 -56 6 -60 8 -8 62 19 92 47 71 64 82
181 23 255 -54 68 -147 95 -226 66z"/>
<path d="M1839 316 c-2 -2 -3 -52 -1 -111 l3 -106 27 3 c25 3 26 6 24 44 -2
23 1 45 7 49 6 3 11 5 11 3 11 -90 18 -105 45 -94 13 4 15 14 10 43 -3 21 -10
42 -14 46 -5 5 -2 21 7 37 14 24 14 32 3 53 -7 14 -23 28 -35 31 -25 7 -81 8
-87 2z m76 -36 c7 -23 -2 -60 -16 -60 -5 0 -9 18 -9 40 0 42 14 54 25 20z"/>
<path d="M2180 306 c0 -7 -9 -16 -19 -19 -10 -2 -27 -17 -37 -32 -15 -23 -16
-32 -6 -58 7 -19 8 -35 2 -42 -10 -12 -8 -54 4 -74 10 -15 81 -10 98 7 15 15
0 49 -25 56 -20 6 -20 7 -5 17 32 18 40 46 27 87 -7 20 -12 45 -10 55 1 10 -4
17 -13 17 -9 0 -16 -6 -16 -14z m0 -86 c0 -22 -4 -40 -10 -40 -5 0 -10 18 -10
40 0 22 5 40 10 40 6 0 10 -18 10 -40z m8 -127 c-10 -2 -26 -2 -35 0 -10 3 -2
5 17 5 19 0 27 -2 18 -5z"/>
<path d="M2527 314 c-10 -11 -9 -44 2 -44 5 0 12 6 14 13 3 6 6 -32 6 -86 l1
-98 26 3 27 3 -2 94 c-2 87 -1 93 14 81 15 -13 17 -11 13 10 -3 22 -9 25 -48
28 -25 2 -49 0 -53 -4z"/>
<path d="M2001 264 c-41 -53 -14 -164 39 -164 49 0 71 129 30 170 -27 27 -44
25 -69 -6z m49 -69 c0 -37 -4 -65 -10 -65 -6 0 -10 28 -10 65 0 37 4 65 10 65
6 0 10 -28 10 -65z"/>
<path d="M2262 267 c-30 -31 -30 -104 -1 -141 32 -40 79 -29 79 18 0 20 -1 20
-16 -2 -23 -33 -34 -27 -34 18 0 36 3 40 25 40 21 0 25 5 25 29 0 31 -22 61
-44 61 -7 0 -22 -10 -34 -23z m48 -21 c0 -8 -4 -18 -10 -21 -5 -3 -10 3 -10
14 0 12 5 21 10 21 6 0 10 -6 10 -14z"/>
<path d="M2369 280 c0 -3 0 -43 0 -90 0 -81 0 -85 22 -85 21 0 22 3 20 68 -2
55 0 67 13 67 10 0 16 9 16 23 0 19 -5 22 -35 22 -19 0 -35 -2 -36 -5z"/>
<path d="M2655 276 c-11 -8 -16 -19 -12 -30 9 -23 32 -20 45 7 l11 22 0 -22
c1 -15 -9 -28 -29 -38 -26 -13 -30 -21 -30 -55 0 -46 10 -54 68 -56 l42 -1 0
78 c0 57 -4 82 -16 93 -19 20 -54 21 -79 2z m49 -108 c-1 -13 -3 -27 -3 -33
-1 -5 -5 -4 -10 3 -9 15 -2 64 9 57 3 -2 6 -14 4 -27z"/>
<path d="M2781 280 c-3 -3 -6 -43 -6 -90 0 -78 2 -85 20 -85 18 0 21 9 26 75
l5 75 2 -61 c4 -116 52 -129 52 -13 0 92 18 89 22 -3 3 -64 5 -73 22 -73 17 0
19 7 17 85 -2 91 -9 107 -38 95 -10 -5 -22 -7 -28 -5 -18 5 -87 5 -94 0z"/>
<path d="M2985 276 c-11 -8 -16 -19 -12 -30 8 -20 26 -21 33 -1 8 19 24 19 24
0 0 -8 -13 -21 -30 -30 -34 -18 -45 -49 -31 -87 9 -23 15 -25 58 -24 l48 1 -3
80 c-3 59 -8 83 -20 93 -21 16 -44 15 -67 -2z m45 -112 c0 -21 -4 -33 -10 -29
-5 3 -10 19 -10 36 0 16 5 29 10 29 6 0 10 -16 10 -36z"/>
<path d="M3108 283 c-13 -3 -16 -11 -12 -36 6 -33 22 -100 30 -129 4 -13 0
-18 -15 -18 -25 0 -28 -18 -5 -27 32 -12 51 31 78 175 4 24 2 32 -7 29 -12 -4
-13 -8 -16 -48 -2 -31 -21 -12 -21 21 0 32 -7 38 -32 33z"/>
<path d="M3231 271 c-44 -44 -27 -162 25 -169 58 -8 87 123 38 172 -20 21 -40
20 -63 -3z m39 -76 c0 -37 -4 -65 -10 -65 -6 0 -10 28 -10 65 0 37 4 65 10 65
6 0 10 -28 10 -65z"/>
<path d="M4275 206 c-18 -42 -19 -77 -5 -128 15 -51 45 -67 73 -39 16 15 18
24 10 32 -8 8 -13 5 -18 -10 -3 -12 -11 -19 -16 -16 -11 7 -12 158 -2 169 4 4
15 -3 25 -16 l19 -23 -3 30 c-3 26 -7 30 -36 33 -29 3 -34 -1 -47 -32z"/>
<path d="M5011 216 c-8 -9 -11 -44 -9 -98 3 -74 5 -83 23 -86 19 -3 20 3 20
94 0 97 -9 120 -34 90z"/>
<path d="M4390 190 c-29 -29 -28 -110 3 -145 20 -24 25 -26 50 -14 47 21 59
116 19 162 -20 23 -47 22 -72 -3z m50 -70 c0 -32 -4 -62 -10 -65 -6 -4 -10 20
-10 65 0 45 4 69 10 65 6 -3 10 -33 10 -65z"/>
<path d="M4521 196 c-32 -38 -24 -148 11 -167 18 -10 25 -8 40 11 20 24 23 40
9 40 -5 0 -13 -10 -16 -21 -6 -17 -9 -19 -16 -8 -12 19 -11 116 1 124 6 3 10
-1 10 -9 0 -9 7 -16 15 -16 8 0 15 8 15 18 0 38 -46 56 -69 28z"/>
<path d="M4626 197 c-19 -14 -32 -82 -22 -121 3 -14 17 -33 30 -41 20 -14 28
-14 45 -3 43 26 50 118 13 161 -18 20 -41 22 -66 4z m44 -83 c0 -36 -4 -64
-10 -64 -6 0 -10 30 -10 71 0 44 4 68 10 64 6 -3 10 -35 10 -71z"/>
<path d="M4737 201 c-1 -3 -1 -43 1 -88 3 -74 6 -83 23 -83 17 0 19 8 19 75 0
43 4 75 10 75 6 0 10 -32 10 -75 0 -73 1 -75 25 -75 25 0 25 0 21 81 -2 44 -7
83 -11 87 -8 9 -94 12 -98 3z"/>
<path d="M4875 197 c-3 -7 -5 -47 -3 -88 l3 -74 53 -3 53 -3 -3 88 c-3 80 -5
88 -23 88 -18 0 -21 -8 -25 -80 -6 -87 -18 -74 -22 24 -3 53 -21 80 -33 48z"/>
</g>
</svg>
